# This file uses meters as units for non-parametric coordinates.

mtllib crystalBaseTwo.mtl
g default
v -65.263996 870.596882 1411.192017
v 71.367438 870.596882 1379.817578
v -65.263996 884.619053 1411.192017
v 65.263996 884.619053 1372.170807
v -93.930268 884.619056 1212.708518
v 89.737281 897.329274 1187.534835
v -106.304111 870.596882 1212.708518
v 89.737281 870.596882 1187.534835
v 0.000000 877.917910 1431.736704
v 0.000000 870.596678 1452.310605
v 65.263996 877.917910 1372.170807
v 0.000000 884.619258 1431.736704
v -65.263996 877.917910 1411.192017
v 0.000000 897.329478 1306.906811
v 85.808678 897.329478 1306.906811
v 24.473285 897.329478 1166.990138
v -114.474934 894.587896 1277.972519
v 24.473285 877.917910 1166.990138
v 89.737281 877.917910 1187.534835
v 24.473285 870.596678 1157.453719
v -93.930268 877.917910 1212.708518
v 0.000000 870.596678 1306.906811
v 110.165682 870.596678 1306.906811
v -134.949581 870.596678 1277.972519
v 85.808678 877.917910 1306.906811
v -114.474934 877.917910 1277.972519
v -32.631952 874.257345 1442.038288
v -65.263996 874.257396 1411.192017
v -32.631998 870.596780 1442.038267
v 0.000000 874.257294 1452.310605
v -32.631998 877.917910 1421.464366
v -47.931654 898.001573 1349.359920
v -110.070643 894.587794 1344.582268
v -32.631998 884.619155 1421.464366
v 0.000000 890.974368 1369.321757
v -57.237467 900.943007 1292.439665
v -43.238363 884.604797 1175.193531
v -93.930268 881.268481 1212.708518
v -45.920099 890.974268 1176.229001
v 24.473285 887.623694 1166.990138
v -45.920099 877.917910 1176.229001
v -36.353849 870.596722 1239.469725
v -104.202606 870.596780 1245.340519
v -58.293943 870.596780 1176.229001
v 12.236642 870.596678 1236.948474
v -57.237467 870.596678 1292.439665
v 110.826273 874.257345 1339.538763
v 71.367438 874.257396 1379.817578
v 110.826263 870.596780 1339.538809
v 110.165682 874.257294 1306.906811
v 98.468489 877.917910 1339.538809
v -104.202606 874.257345 1245.340570
v -106.304111 874.257396 1212.708518
v -134.949581 874.257294 1277.972519
v -104.202606 877.917910 1245.340519
v 32.631965 874.257345 1451.758822
v 32.631998 870.596780 1451.758792
v 32.631998 877.917910 1401.953758
v 32.631962 881.268532 1401.953799
v 65.263996 881.268481 1372.170807
v 32.631998 884.619155 1401.953758
v 0.000000 881.268584 1431.736704
v -32.631957 881.268533 1421.464386
v -65.263996 881.268481 1411.192017
v 32.016508 890.930412 1357.012460
v 98.468489 890.974266 1339.538809
v 42.904339 897.329478 1306.906811
v 47.654162 897.329433 1244.516619
v 87.772980 897.329376 1247.220823
v 57.105280 897.329376 1177.262487
v 12.236642 897.329478 1236.948474
v -36.382774 891.998590 1239.479862
v -104.202606 884.619158 1245.340519
v 57.105239 887.623643 1177.262497
v 89.737281 887.623592 1187.534835
v 57.105280 877.917910 1177.262487
v 57.105234 874.257345 1167.726067
v 89.737281 874.257396 1187.534835
v 57.105280 870.596780 1167.726067
v 24.473285 874.257294 1157.453719
v -58.293897 874.257345 1176.229001
v 47.654162 870.596724 1244.516619
v 112.129984 870.596780 1247.220823
v 42.904339 870.596678 1306.906811
v 31.934099 870.596721 1357.046513
v 0.000000 870.596678 1369.321757
v -47.985895 870.596725 1349.417144
v -130.545301 870.596780 1344.582268
v 112.129984 874.257345 1247.220869
v 87.772980 877.917910 1247.220823
v 87.772980 887.623643 1247.220864
v 85.808678 887.623694 1306.906811
v 99.264014 884.738732 1337.011687
v -130.545331 874.257345 1344.582225
v -110.070643 877.917910 1344.582268
v -110.070663 881.268532 1344.582222
v -114.474934 881.268584 1277.972519
v -104.202626 881.268533 1245.340565
vt 0.375000 0.000000
vt 0.625000 0.000000
vt 0.375000 0.250000
vt 0.625000 0.250000
vt 0.375000 0.500000
vt 0.625000 0.500000
vt 0.375000 0.750000
vt 0.625000 0.750000
vt 0.375000 1.000000
vt 0.625000 1.000000
vt 0.875000 0.000000
vt 0.875000 0.250000
vt 0.125000 0.000000
vt 0.125000 0.250000
vt 0.500000 0.125000
vt 0.500000 0.000000
vt 0.500000 1.000000
vt 0.625000 0.125000
vt 0.500000 0.250000
vt 0.375000 0.125000
vt 0.500000 0.375000
vt 0.625000 0.375000
vt 0.750000 0.250000
vt 0.500000 0.500000
vt 0.250000 0.250000
vt 0.375000 0.375000
vt 0.500000 0.625000
vt 0.625000 0.625000
vt 0.875000 0.125000
vt 0.500000 0.750000
vt 0.125000 0.125000
vt 0.375000 0.625000
vt 0.500000 0.875000
vt 0.625000 0.875000
vt 0.750000 0.000000
vt 0.500000 1.000000
vt 0.250000 0.000000
vt 0.375000 0.875000
vt 0.750000 0.125000
vt 0.750000 0.000000
vt 0.875000 0.125000
vt 0.750000 0.250000
vt 0.250000 0.125000
vt 0.250000 0.000000
vt 0.250000 0.250000
vt 0.125000 0.125000
vt 0.437500 0.062500
vt 0.375000 0.062500
vt 0.437500 0.000000
vt 0.437500 1.000000
vt 0.500000 0.062500
vt 0.437500 0.125000
vt 0.435226 0.319419
vt 0.312500 0.250000
vt 0.375000 0.312500
vt 0.437500 0.250000
vt 0.500000 0.312500
vt 0.437500 0.375000
vt 0.440331 0.562359
vt 0.125000 0.187500
vt 0.375000 0.562500
vt 0.437500 0.500000
vt 0.500000 0.562500
vt 0.437500 0.625000
vt 0.447602 0.811286
vt 0.187500 0.000000
vt 0.375000 0.812500
vt 0.437500 0.750000
vt 0.500000 0.812500
vt 0.437500 0.875000
vt 0.687500 0.062500
vt 0.625000 0.062500
vt 0.625000 0.937500
vt 0.687500 0.000000
vt 0.750000 0.062500
vt 0.687500 0.125000
vt 0.187500 0.062500
vt 0.125000 0.062500
vt 0.375000 0.687500
vt 0.187500 0.000000
vt 0.250000 0.062500
vt 0.187500 0.125000
vt 0.562500 0.062500
vt 0.562500 0.000000
vt 0.562500 1.000000
vt 0.562500 0.125000
vt 0.562500 0.187500
vt 0.625000 0.187500
vt 0.562500 0.250000
vt 0.500000 0.187500
vt 0.437500 0.187500
vt 0.375000 0.187500
vt 0.553041 0.312068
vt 0.625000 0.312500
vt 0.687500 0.250000
vt 0.562500 0.375000
vt 0.559102 0.434886
vt 0.625000 0.437500
vt 0.812500 0.250000
vt 0.562500 0.500000
vt 0.500000 0.437500
vt 0.447573 0.438704
vt 0.187500 0.250000
vt 0.375000 0.437500
vt 0.562500 0.562500
vt 0.625000 0.562500
vt 0.875000 0.187500
vt 0.562500 0.625000
vt 0.562500 0.687500
vt 0.625000 0.687500
vt 0.875000 0.062500
vt 0.562500 0.750000
vt 0.500000 0.687500
vt 0.437500 0.687500
vt 0.375000 0.687500
vt 0.559102 0.815114
vt 0.625000 0.812500
vt 0.812500 0.000000
vt 0.562500 0.875000
vt 0.552905 0.937934
vt 0.625000 0.937500
vt 0.562500 1.000000
vt 0.500000 0.937500
vt 0.435130 0.930655
vt 0.437500 1.000000
vt 0.312500 0.000000
vt 0.375000 0.937500
vt 0.812500 0.062500
vt 0.812500 0.000000
vt 0.875000 0.062500
vt 0.812500 0.125000
vt 0.812500 0.187500
vt 0.875000 0.187500
vt 0.812500 0.250000
vt 0.750000 0.187500
vt 0.692340 0.187946
vt 0.687500 0.250000
vt 0.312500 0.062500
vt 0.312500 0.000000
vt 0.312500 0.125000
vt 0.312500 0.187500
vt 0.312500 0.250000
vt 0.250000 0.187500
vt 0.187500 0.187500
vt 0.187500 0.250000
vt 0.125000 0.187500
vn -0.177369 0.885397 0.429665
vn -0.441658 0.779327 0.444508
vn -0.483504 0.728011 0.486029
vn -0.213949 0.889204 0.404403
vn -0.040217 0.997859 -0.051580
vn -0.275154 0.955906 -0.102634
vn -0.305666 0.940929 0.145671
vn -0.010875 0.994185 0.107138
vn -0.252947 0.596318 -0.761855
vn -0.494059 0.733891 -0.466166
vn -0.722531 0.001997 -0.691336
vn -0.246938 -0.001321 -0.969030
vn -0.000000 -1.000000 0.000000
vn -0.058864 -0.998144 -0.015624
vn -0.030057 -0.999461 -0.013194
vn -0.000001 -1.000000 -0.000001
vn 0.457574 0.872604 0.170845
vn 0.318966 0.900673 0.295039
vn 0.359297 0.893826 0.268291
vn 0.466093 0.863449 0.192908
vn -0.633413 0.741906 -0.219918
vn -0.669670 0.619977 -0.408864
vn -0.642215 0.720375 -0.261953
vn -0.006363 0.965362 0.260837
vn -0.006350 -0.999071 0.042633
vn 0.068113 -0.995422 0.067054
vn 0.232412 0.937614 0.258581
vn 0.205715 0.959190 0.193998
vn 0.698167 0.003388 0.715927
vn 0.674128 0.000000 0.738615
vn 0.286424 0.000000 0.958103
vn 0.067047 0.976931 0.202759
vn -0.016668 0.979828 0.199148
vn -0.300268 -0.000000 0.953855
vn 0.051665 0.992141 0.113963
vn 0.137110 0.970606 0.197800
vn 0.048413 0.988550 0.142915
vn 0.010175 0.997958 0.063055
vn 0.158967 0.985132 0.065158
vn 0.230618 0.973015 0.007589
vn 0.000001 1.000000 -0.000001
vn -0.037771 0.999070 -0.020795
vn -0.051687 0.985947 -0.158858
vn -0.151345 0.979186 -0.135235
vn -0.073109 0.995003 -0.067997
vn 0.031899 0.000770 -0.999491
vn 0.041272 0.990509 -0.131102
vn 0.300268 -0.000000 -0.953855
vn 0.289410 0.430015 -0.855178
vn 0.692380 0.641460 -0.330362
vn 0.509889 0.797062 -0.323582
vn 0.278951 0.687727 -0.670237
vn -0.044733 0.645795 -0.762199
vn -0.005095 -0.997593 -0.069156
vn -0.029545 -0.997115 -0.069925
vn -0.345018 0.659131 -0.668213
vn 0.000000 -1.000000 -0.000000
vn 0.020208 -0.998834 -0.043839
vn 0.000001 -1.000000 -0.000001
vn 0.000001 -1.000000 0.000000
vn 0.047364 -0.998878 0.000669
vn 0.059238 -0.997746 0.031524
vn 0.000002 -1.000000 0.000001
vn -0.000000 -1.000000 0.000000
vn -0.024878 -0.998910 0.039484
vn -0.000001 -1.000000 0.000001
vn 0.310107 0.950685 -0.005720
vn 0.067467 -0.997655 -0.011547
vn 0.381218 0.923392 -0.044943
vn 0.587851 0.808963 0.003263
vn 0.915864 0.000000 -0.401488
vn 0.999459 0.000000 0.032893
vn 0.994733 0.001916 -0.102484
vn 0.193268 0.962234 0.191713
vn 0.999909 -0.005456 0.012297
vn -0.405349 0.911156 -0.074075
vn -0.068602 -0.996998 0.035886
vn -0.431863 0.882313 0.187131
vn -0.405281 0.895813 0.182394
vn -0.752156 -0.000000 0.658986
vn -0.953502 -0.000000 0.301388
vn -0.999512 -0.000000 -0.031237
vn -0.177480 0.967501 -0.180118
vn -0.953855 0.000000 -0.300267
vn -0.046604 -0.997815 0.046822
vn 0.040099 0.976652 0.211051
vn -0.187564 0.939662 0.286102
vn 0.026100 0.999398 0.022847
vn -0.188370 0.979043 -0.077401
vn 0.011618 0.531294 -0.847108
vn -0.060635 -0.997347 -0.040278
vn -0.000000 -1.000000 0.000000
vn 0.072421 -0.996097 0.050462
vn 0.523938 0.850494 -0.046358
vn -0.371624 0.927189 -0.047066
vn 0.183678 0.940278 0.286601
vn 0.238230 0.965578 -0.104433
vn 0.056853 -0.997607 -0.039353
s 1
g crystal_BaseTwo
usemtl StingrayPBS21SG
f 31/52/1 13/20/2 28/48/3 27/47/4
f 36/58/5 17/26/6 33/55/7 32/53/8
f 41/64/9 21/32/10 38/61/11 37/59/12
f 46/70/13 24/38/14 43/67/15 42/65/16
f 51/76/17 11/18/18 48/72/19 47/71/20
f 55/82/21 21/46/10 53/78/22 52/77/23
f 30/51/24 10/16/25 57/84/26 56/83/27
f 58/86/28 11/18/18 60/88/29 59/87/30
f 62/90/31 12/19/32 34/56/33 63/91/34
f 35/57/35 12/19/32 61/89/36 65/93/37
f 67/96/38 15/22/39 69/98/40 68/97/41
f 71/101/42 16/24/43 39/62/44 72/102/45
f 40/63/46 16/24/43 70/100/47 74/105/48
f 76/108/49 19/28/50 78/110/51 77/109/52
f 80/113/53 20/30/54 44/68/55 81/114/56
f 45/69/57 20/30/54 79/112/58 82/116/59
f 84/119/60 23/34/61 49/121/62 85/120/63
f 86/123/64 10/36/25 29/125/65 87/124/66
f 50/75/67 23/40/61 83/129/68 89/128/69
f 90/131/70 19/41/50 75/133/71 91/132/72
f 92/135/73 15/42/39 66/137/74 93/136/75
f 54/81/76 24/44/14 88/139/77 94/138/78
f 95/140/79 13/20/2 64/92/80 96/141/81
f 97/143/82 17/45/6 73/145/83 98/144/84
f 28/48/3 1/1/85 29/49/65 27/47/4
f 29/49/65 10/16/25 30/51/24 27/47/4
f 30/51/24 9/15/86 31/52/1 27/47/4
f 33/55/7 3/3/87 34/56/33 32/53/8
f 34/56/33 12/19/32 35/57/35 32/53/8
f 35/57/35 14/21/88 36/58/5 32/53/8
f 38/61/11 5/5/89 39/62/44 37/59/12
f 39/62/44 16/24/43 40/63/46 37/59/12
f 40/63/46 18/27/90 41/64/9 37/59/12
f 43/67/15 7/7/91 44/68/55 42/65/16
f 44/68/55 20/30/54 45/69/57 42/65/16
f 45/69/57 22/33/92 46/70/13 42/65/16
f 48/72/19 2/2/93 49/74/62 47/71/20
f 49/74/62 23/40/61 50/75/67 47/71/20
f 50/75/67 25/39/94 51/76/17 47/71/20
f 53/78/22 7/13/91 43/80/15 52/77/23
f 43/80/15 24/44/14 54/81/76 52/77/23
f 54/81/76 26/43/95 55/82/21 52/77/23
f 57/84/26 2/2/93 48/72/19 56/83/27
f 48/72/19 11/18/18 58/86/28 56/83/27
f 58/86/28 9/15/86 30/51/24 56/83/27
f 60/88/29 4/4/96 61/89/36 59/87/30
f 61/89/36 12/19/32 62/90/31 59/87/30
f 62/90/31 9/15/86 58/86/28 59/87/30
f 34/56/33 3/3/87 64/92/80 63/91/34
f 64/92/80 13/20/2 31/52/1 63/91/34
f 31/52/1 9/15/86 62/90/31 63/91/34
f 61/89/36 4/4/96 66/94/74 65/93/37
f 66/94/74 15/22/39 67/96/38 65/93/37
f 67/96/38 14/21/88 35/57/35 65/93/37
f 69/98/40 6/6/97 70/100/47 68/97/41
f 70/100/47 16/24/43 71/101/42 68/97/41
f 71/101/42 14/21/88 67/96/38 68/97/41
f 39/62/44 5/5/89 73/104/83 72/102/45
f 73/104/83 17/26/6 36/58/5 72/102/45
f 36/58/5 14/21/88 71/101/42 72/102/45
f 70/100/47 6/6/97 75/106/71 74/105/48
f 75/106/71 19/28/50 76/108/49 74/105/48
f 76/108/49 18/27/90 40/63/46 74/105/48
f 78/110/51 8/8/98 79/112/58 77/109/52
f 79/112/58 20/30/54 80/113/53 77/109/52
f 80/113/53 18/27/90 76/108/49 77/109/52
f 44/68/55 7/7/91 53/115/22 81/114/56
f 53/115/22 21/32/10 41/64/9 81/114/56
f 41/64/9 18/27/90 80/113/53 81/114/56
f 79/112/58 8/8/98 83/117/68 82/116/59
f 83/117/68 23/34/61 84/119/60 82/116/59
f 84/119/60 22/33/92 45/69/57 82/116/59
f 49/121/62 2/10/93 57/122/26 85/120/63
f 57/122/26 10/36/25 86/123/64 85/120/63
f 86/123/64 22/33/92 84/119/60 85/120/63
f 29/125/65 1/9/85 88/127/77 87/124/66
f 88/127/77 24/38/14 46/70/13 87/124/66
f 46/70/13 22/33/92 86/123/64 87/124/66
f 83/129/68 8/11/98 78/130/51 89/128/69
f 78/130/51 19/41/50 90/131/70 89/128/69
f 90/131/70 25/39/94 50/75/67 89/128/69
f 75/133/71 6/12/97 69/134/40 91/132/72
f 69/134/40 15/42/39 92/135/73 91/132/72
f 92/135/73 25/39/94 90/131/70 91/132/72
f 66/137/74 4/4/96 60/88/29 93/136/75
f 60/88/29 11/18/18 51/76/17 93/136/75
f 51/76/17 25/39/94 92/135/73 93/136/75
f 88/139/77 1/1/85 28/48/3 94/138/78
f 28/48/3 13/20/2 95/140/79 94/138/78
f 95/140/79 26/43/95 54/81/76 94/138/78
f 64/92/80 3/3/87 33/142/7 96/141/81
f 33/142/7 17/45/6 97/143/82 96/141/81
f 97/143/82 26/43/95 95/140/79 96/141/81
f 73/145/83 5/14/89 38/146/11 98/144/84
f 38/146/11 21/46/10 55/82/21 98/144/84
f 55/82/21 26/43/95 97/143/82 98/144/84
