# This file uses meters as units for non-parametric coordinates.

mtllib crystal_Variation_One.mtl
g default
v -86.566402 936.345610 745.764416
v 25.468241 906.326018 776.842985
v -55.487833 1052.332407 745.764416
v 56.546810 1022.312815 776.842985
v 0.395400 1140.813104 629.777619
v 112.430043 1110.793512 660.856188
v -56.546810 928.301885 629.777619
v 55.487833 898.282292 660.856188
v -19.734782 980.595269 779.559645
v -40.165732 904.345925 779.559645
v 41.007525 964.319416 776.842985
v 6.433553 1055.307284 757.392092
v -71.027118 994.339009 745.764416
v 46.294599 1148.081147 703.310302
v 104.485017 1070.645902 723.741252
v 83.545036 1208.162539 627.060958
v -42.817403 1110.115467 682.879352
v 19.734782 970.019431 627.060958
v 71.027118 956.275691 660.856188
v -0.696168 893.770087 627.060958
v -41.007525 986.295283 629.777619
v -20.430950 899.058006 703.310302
v 53.220260 879.323224 723.741252
v -94.082160 918.792789 682.879352
v 73.651210 955.572568 723.741252
v -73.651210 995.042132 682.879352
vt 0.375000 0.000000
vt 0.625000 0.000000
vt 0.375000 0.250000
vt 0.625000 0.250000
vt 0.375000 0.500000
vt 0.625000 0.500000
vt 0.375000 0.750000
vt 0.625000 0.750000
vt 0.375000 1.000000
vt 0.625000 1.000000
vt 0.875000 0.000000
vt 0.875000 0.250000
vt 0.125000 0.000000
vt 0.125000 0.250000
vt 0.500000 0.125000
vt 0.500000 0.000000
vt 0.500000 1.000000
vt 0.625000 0.125000
vt 0.500000 0.250000
vt 0.375000 0.125000
vt 0.500000 0.375000
vt 0.625000 0.375000
vt 0.750000 0.250000
vt 0.500000 0.500000
vt 0.250000 0.250000
vt 0.375000 0.375000
vt 0.500000 0.625000
vt 0.625000 0.625000
vt 0.875000 0.125000
vt 0.500000 0.750000
vt 0.125000 0.125000
vt 0.375000 0.625000
vt 0.500000 0.875000
vt 0.625000 0.875000
vt 0.750000 0.000000
vt 0.500000 1.000000
vt 0.250000 0.000000
vt 0.375000 0.875000
vt 0.750000 0.125000
vt 0.750000 0.000000
vt 0.875000 0.125000
vt 0.750000 0.250000
vt 0.250000 0.125000
vt 0.250000 0.000000
vt 0.250000 0.250000
vt 0.125000 0.125000
vn -0.432364 0.198846 0.879501
vn -0.518617 0.138963 0.843638
vn -0.518617 0.138963 0.843638
vn -0.228482 0.144086 0.962827
vn -0.405766 0.729686 0.550375
vn -0.337187 0.499326 0.798109
vn -0.102853 0.503973 0.857574
vn -0.468387 0.781444 0.412261
vn -0.041689 0.011171 -0.999068
vn -0.041689 0.011171 -0.999068
vn -0.041689 0.011171 -0.999068
vn -0.041689 0.011171 -0.999068
vn -0.400739 -0.915308 -0.040242
vn -0.357572 -0.914733 -0.188166
vn -0.216801 -0.964594 -0.150185
vn -0.258819 -0.965926 -0.000000
vn 0.814892 -0.218350 0.536912
vn 0.814892 -0.218350 0.536912
vn 0.814892 -0.218350 0.536912
vn 0.814892 -0.218350 0.536912
vn -0.814892 0.218350 -0.536912
vn -0.814892 0.218350 -0.536912
vn -0.814892 0.218350 -0.536912
vn -0.814892 0.218350 -0.536912
vn 0.041689 -0.011171 0.999068
vn 0.041689 -0.011171 0.999068
vn -0.011611 0.086105 0.996218
vn 0.097346 0.382893 0.918649
vn 0.375275 0.520407 0.767037
vn 0.512528 0.518608 0.684368
vn 0.649575 0.500983 0.571899
vn 0.649575 0.500983 0.571899
vn -0.523846 0.815400 0.246390
vn -0.523846 0.815400 0.246390
vn 0.518617 -0.138963 -0.843638
vn 0.518617 -0.138963 -0.843638
vn 0.518617 -0.138963 -0.843638
vn 0.518617 -0.138963 -0.843638
vn 0.518617 -0.138963 -0.843638
vn 0.518617 -0.138963 -0.843638
vn -0.041689 0.011171 -0.999068
vn -0.041689 0.011171 -0.999068
vn -0.070882 -0.991551 -0.108637
vn -0.110604 -0.993050 0.040242
vn -0.147700 -0.970968 0.188166
vn -0.294542 -0.943764 0.150185
vn -0.434390 -0.894149 0.108637
vn 0.965026 -0.258578 -0.043160
vn 0.965026 -0.258578 -0.043160
vn 0.965026 -0.258578 -0.043160
vn 0.965026 -0.258578 -0.043160
vn 0.965026 -0.258578 -0.043160
vn 0.965026 -0.258578 -0.043160
vn 0.814892 -0.218350 0.536912
vn 0.814892 -0.218350 0.536912
vn -0.965026 0.258578 0.043160
vn -0.965026 0.258578 0.043160
vn -0.965026 0.258578 0.043160
vn -0.965026 0.258578 0.043160
vn -0.965026 0.258578 0.043160
vn -0.965026 0.258578 0.043160
vn -0.814892 0.218350 -0.536912
vn -0.814892 0.218350 -0.536912
s 1
g crystal_Variation_One
usemtl StingrayPBS27SG
f 13/20/1 1/1/2 10/16/3 9/15/4
f 17/26/5 3/3/6 12/19/7 14/21/8
s 2
f 21/32/9 5/5/10 16/24/11 18/27/12
s 3
f 24/38/13 7/7/14 20/30/15 22/33/16
s 4
f 11/18/17 2/2/18 23/40/19 25/39/20
s 5
f 21/46/21 7/13/22 24/44/23 26/43/24
s 1
f 10/16/25 2/2/26 11/18/27 9/15/4
f 11/18/27 4/4/28 12/19/7 9/15/4
f 12/19/7 3/3/6 13/20/1 9/15/4
f 12/19/7 4/4/28 15/22/29 14/21/30
f 15/22/29 6/6/31 16/24/32 14/21/30
f 16/24/33 5/5/34 17/26/5 14/21/8
s 7
f 16/24/35 6/6/36 19/28/37 18/27/38
f 19/28/37 8/8/39 20/30/40 18/27/38
s 2
f 20/30/41 7/7/42 21/32/9 18/27/12
s 3
f 20/30/15 8/8/43 23/34/44 22/33/16
f 23/34/44 2/10/45 10/36/46 22/33/16
f 10/36/46 1/9/47 24/38/13 22/33/16
s 8
f 23/40/48 8/11/49 19/41/50 25/39/51
f 19/41/50 6/12/52 15/42/53 25/39/51
s 4
f 15/42/54 4/4/55 11/18/17 25/39/20
s 9
f 24/44/56 1/1/57 13/20/58 26/43/59
f 13/20/58 3/3/60 17/45/61 26/43/59
s 5
f 17/45/62 5/14/63 21/46/21 26/43/24
