# This file uses meters as units for non-parametric coordinates.

mtllib crystal_Variation_Two.mtl
g default
v -15.229117 1017.761464 590.476059
v 88.761800 1017.761464 530.436875
v -73.222516 1048.840033 490.028546
v 30.768402 1048.840033 429.989362
v -137.024011 958.716877 379.521114
v -33.033094 958.716877 319.481930
v -30.768402 901.774667 563.561229
v 73.222516 901.774667 503.522045
v 10.215475 1051.556693 514.469017
v 48.340147 1031.125743 580.502886
v 59.765101 1033.300748 480.213118
v -30.879086 1049.820090 443.291150
v -44.225817 1033.300748 540.252303
v -86.386899 1021.601949 347.148798
v 10.826624 1006.141157 357.649300
v -129.287029 962.868260 272.843592
v -125.899958 1006.141157 436.588429
v -10.215475 899.058006 479.081574
v 44.225817 917.313951 453.298288
v 27.909197 878.627056 545.115442
v -59.765101 917.313951 513.337473
v 38.124672 954.876400 562.809164
v 106.487963 954.876400 523.339599
v -30.238619 954.876400 602.278728
v 68.363291 975.307350 457.305731
v -68.363291 975.307350 536.244860
vt 0.375000 0.000000
vt 0.625000 0.000000
vt 0.375000 0.250000
vt 0.625000 0.250000
vt 0.375000 0.500000
vt 0.625000 0.500000
vt 0.375000 0.750000
vt 0.625000 0.750000
vt 0.375000 1.000000
vt 0.625000 1.000000
vt 0.875000 0.000000
vt 0.875000 0.250000
vt 0.125000 0.000000
vt 0.125000 0.250000
vt 0.500000 0.125000
vt 0.500000 0.000000
vt 0.500000 1.000000
vt 0.625000 0.125000
vt 0.500000 0.250000
vt 0.375000 0.125000
vt 0.500000 0.375000
vt 0.625000 0.375000
vt 0.750000 0.250000
vt 0.500000 0.500000
vt 0.250000 0.250000
vt 0.375000 0.375000
vt 0.500000 0.625000
vt 0.625000 0.625000
vt 0.875000 0.125000
vt 0.500000 0.750000
vt 0.125000 0.125000
vt 0.375000 0.625000
vt 0.500000 0.875000
vt 0.625000 0.875000
vt 0.750000 0.000000
vt 0.500000 1.000000
vt 0.250000 0.000000
vt 0.375000 0.875000
vt 0.750000 0.125000
vt 0.750000 0.000000
vt 0.875000 0.125000
vt 0.750000 0.250000
vt 0.250000 0.125000
vt 0.250000 0.000000
vt 0.250000 0.250000
vt 0.125000 0.125000
vn -0.108340 0.958608 0.263311
vn -0.136601 0.921353 0.363934
vn -0.136601 0.921353 0.363934
vn 0.090337 0.983543 0.156469
vn -0.563915 0.813946 -0.139612
vn -0.277457 0.960624 -0.014838
vn -0.107357 0.976677 -0.185947
vn -0.687784 0.712300 -0.139936
vn -0.383477 -0.921353 -0.063667
vn -0.383477 -0.921353 -0.063667
vn -0.383477 -0.921353 -0.063667
vn -0.383477 -0.921353 -0.063667
vn 0.342438 -0.255671 0.904084
vn 0.318490 -0.401037 0.858914
vn 0.456969 -0.405856 0.791493
vn 0.482963 -0.258819 0.836516
vn 0.864920 0.290036 -0.409624
vn 0.864920 0.290036 -0.409624
vn 0.864920 0.290036 -0.409624
vn 0.864920 0.290036 -0.409624
vn -0.864920 -0.290036 0.409624
vn -0.864920 -0.290036 0.409624
vn -0.864920 -0.290036 0.409624
vn -0.864920 -0.290036 0.409624
vn 0.383477 0.921353 0.063667
vn 0.383477 0.921353 0.063667
vn 0.282204 0.958608 0.037830
vn 0.125878 0.960624 -0.247704
vn 0.161050 0.813946 -0.558171
vn 0.222704 0.712300 -0.665606
vn 0.284493 0.577904 -0.764912
vn 0.284493 0.577904 -0.764912
vn -0.804680 0.577904 -0.136078
vn -0.804680 0.577904 -0.136078
vn 0.136601 -0.921353 -0.363934
vn 0.136601 -0.921353 -0.363934
vn 0.136601 -0.921353 -0.363934
vn 0.136601 -0.921353 -0.363934
vn 0.136601 -0.921353 -0.363934
vn 0.136601 -0.921353 -0.363934
vn -0.383477 -0.921353 -0.063667
vn -0.383477 -0.921353 -0.063667
vn 0.584596 -0.401037 0.705277
vn 0.611741 -0.255671 0.748602
vn 0.624360 -0.104234 0.774151
vn 0.497210 -0.105487 0.861194
vn 0.358254 -0.104234 0.927787
vn 0.787205 -0.290036 -0.544231
vn 0.787205 -0.290036 -0.544231
vn 0.787205 -0.290036 -0.544231
vn 0.787205 -0.290036 -0.544231
vn 0.787205 -0.290036 -0.544231
vn 0.787205 -0.290036 -0.544231
vn 0.864920 0.290036 -0.409624
vn 0.864920 0.290036 -0.409624
vn -0.787205 0.290036 0.544231
vn -0.787205 0.290036 0.544231
vn -0.787205 0.290036 0.544231
vn -0.787205 0.290036 0.544231
vn -0.787205 0.290036 0.544231
vn -0.787205 0.290036 0.544231
vn -0.864920 -0.290036 0.409624
vn -0.864920 -0.290036 0.409624
s 1
g crystal_Variation_Two
usemtl StingrayPBS28SG
f 13/20/1 1/1/2 10/16/3 9/15/4
f 17/26/5 3/3/6 12/19/7 14/21/8
s 2
f 21/32/9 5/5/10 16/24/11 18/27/12
s 3
f 24/38/13 7/7/14 20/30/15 22/33/16
s 4
f 11/18/17 2/2/18 23/40/19 25/39/20
s 5
f 21/46/21 7/13/22 24/44/23 26/43/24
s 1
f 10/16/25 2/2/26 11/18/27 9/15/4
f 11/18/27 4/4/28 12/19/7 9/15/4
f 12/19/7 3/3/6 13/20/1 9/15/4
f 12/19/7 4/4/28 15/22/29 14/21/30
f 15/22/29 6/6/31 16/24/32 14/21/30
f 16/24/33 5/5/34 17/26/5 14/21/8
s 7
f 16/24/35 6/6/36 19/28/37 18/27/38
f 19/28/37 8/8/39 20/30/40 18/27/38
s 2
f 20/30/41 7/7/42 21/32/9 18/27/12
s 3
f 20/30/15 8/8/43 23/34/44 22/33/16
f 23/34/44 2/10/45 10/36/46 22/33/16
f 10/36/46 1/9/47 24/38/13 22/33/16
s 8
f 23/40/48 8/11/49 19/41/50 25/39/51
f 19/41/50 6/12/52 15/42/53 25/39/51
s 4
f 15/42/54 4/4/55 11/18/17 25/39/20
s 9
f 24/44/56 1/1/57 13/20/58 26/43/59
f 13/20/58 3/3/60 17/45/61 26/43/59
s 5
f 17/45/62 5/14/63 21/46/21 26/43/24
