# This file uses meters as units for non-parametric coordinates.

mtllib crystalThree.mtl
g default
v -55.156224 1005.702007 850.138625
v -110.802042 967.955750 861.860281
v -110.802045 950.290260 927.788783
v -55.156225 977.118629 956.813186
v -20.765226 1011.364983 908.822728
v -108.538297 1043.535783 917.674726
v 17.308720 950.141782 892.418021
v -17.082278 944.478803 833.733931
v -17.082286 915.895446 940.408455
v -72.728102 889.067071 911.384050
v -72.728099 906.732551 845.455589
vt 0.123947 0.101019
vt 0.072586 0.170916
vt 0.018579 0.295766
vt 0.127988 0.217195
vt 0.201379 0.271408
vt 0.262465 0.237650
vt 0.263121 0.094661
vt 0.235015 0.190532
vt 0.196339 0.189304
vt 0.179420 0.140985
vt 0.356534 0.150628
vt 0.208332 0.343673
vt 0.359385 0.309829
vt 0.313045 0.192292
vt 0.269628 0.163741
vn 0.514935 -0.828020 -0.221867
vn 0.514935 -0.828020 -0.221867
vn 0.514935 -0.828020 -0.221867
vn 0.514935 -0.828020 -0.221867
vn 0.514935 -0.828020 -0.221867
vn -0.500563 0.523924 -0.689159
vn -0.500563 0.523924 -0.689159
vn -0.500563 0.523924 -0.689159
vn -0.999665 0.024996 0.006698
vn -0.999665 0.024996 0.006698
vn -0.999665 0.024996 0.006698
vn -0.499363 0.105400 0.859958
vn -0.499363 0.105400 0.859958
vn -0.499363 0.105400 0.859958
vn 0.309592 0.655013 0.689283
vn 0.309592 0.655013 0.689283
vn 0.309592 0.655013 0.689283
vn 0.307544 0.912917 -0.268327
vn 0.307543 0.912917 -0.268327
vn 0.307544 0.912917 -0.268327
vn 0.693513 0.554526 -0.459935
vn 0.693513 0.554526 -0.459935
vn 0.693513 0.554526 -0.459935
vn 0.693513 0.554526 -0.459935
vn 0.693513 0.250266 0.675579
vn 0.693513 0.250266 0.675579
vn 0.693513 0.250266 0.675579
vn 0.693513 0.250266 0.675579
vn -0.264898 -0.399854 0.877466
vn -0.264898 -0.399854 0.877466
vn -0.264899 -0.399854 0.877466
vn -0.264898 -0.399854 0.877466
vn -0.857229 -0.497389 -0.133275
vn -0.857229 -0.497389 -0.133275
vn -0.857229 -0.497389 -0.133275
vn -0.857229 -0.497389 -0.133275
vn -0.264898 0.092450 -0.959834
vn -0.264898 0.092450 -0.959834
vn -0.264898 0.092450 -0.959834
vn -0.264898 0.092450 -0.959834
s off
g crystal_Three
usemtl StingrayPBS26SG
f 8/15/1 7/8/2 9/9/3 10/10/4 11/7/5
f 1/14/6 2/11/7 6/13/8
f 2/2/9 3/4/10 6/3/11
f 3/12/12 4/5/13 6/13/14
f 4/5/15 5/6/16 6/13/17
f 5/6/18 1/14/19 6/13/20
f 1/14/21 5/6/22 7/8/23 8/15/24
f 5/6/25 4/5/26 9/9/27 7/8/28
f 4/5/29 3/4/30 10/10/31 9/9/32
f 3/4/33 2/2/34 11/1/35 10/10/36
f 2/11/37 1/14/38 8/15/39 11/7/40
