# This file uses meters as units for non-parametric coordinates.

mtllib crystalTwo.mtl
g default
v -79.937993 946.935392 876.870039
v -144.851585 941.476447 897.243054
v -144.851588 923.810958 963.171556
v -79.938002 918.352006 983.544597
v -39.819200 932.643714 930.207308
v -97.879674 1062.568149 965.252314
v -39.819200 802.415028 895.312636
v -79.937993 816.706703 841.975381
v -79.938002 788.123350 948.649905
v -144.851588 793.582291 928.276861
v -144.851585 811.247769 862.348399
vt 0.123947 0.101019
vt 0.072586 0.170916
vt 0.018579 0.295766
vt 0.127988 0.217195
vt 0.201379 0.271408
vt 0.262465 0.237650
vt 0.263121 0.094661
vt 0.235015 0.190532
vt 0.196339 0.189304
vt 0.179420 0.140985
vt 0.356534 0.150628
vt 0.208332 0.343673
vt 0.359385 0.309829
vt 0.313045 0.192292
vt 0.269628 0.163741
vn 0.000000 -0.965926 -0.258819
vn 0.000000 -0.965926 -0.258819
vn 0.000000 -0.965926 -0.258819
vn 0.000000 -0.965926 -0.258819
vn 0.000000 -0.965926 -0.258819
vn -0.291610 0.551900 -0.781262
vn -0.291610 0.551900 -0.781262
vn -0.291610 0.551900 -0.781262
vn -0.944135 0.318328 0.085296
vn -0.944135 0.318328 0.085296
vn -0.944135 0.318328 0.085296
vn -0.291898 0.084526 0.952707
vn -0.291898 0.084526 0.952707
vn -0.291898 0.084526 0.952707
vn 0.764054 0.173858 0.621285
vn 0.764054 0.173858 0.621285
vn 0.764054 0.173858 0.621285
vn 0.763589 0.462711 -0.450367
vn 0.763589 0.462711 -0.450367
vn 0.763589 0.462711 -0.450367
vn 0.809017 0.152130 -0.567757
vn 0.809017 0.152130 -0.567757
vn 0.809017 0.152130 -0.567757
vn 0.809017 0.152130 -0.567757
vn 0.809017 -0.152130 0.567757
vn 0.809017 -0.152130 0.567757
vn 0.809017 -0.152130 0.567757
vn 0.809017 -0.152130 0.567757
vn -0.309017 -0.246152 0.918650
vn -0.309017 -0.246152 0.918650
vn -0.309017 -0.246152 0.918650
vn -0.309017 -0.246152 0.918650
vn -1.000000 0.000000 -0.000000
vn -1.000000 0.000000 -0.000000
vn -1.000000 0.000000 -0.000000
vn -1.000000 0.000000 -0.000000
vn -0.309017 0.246151 -0.918650
vn -0.309017 0.246151 -0.918650
vn -0.309017 0.246152 -0.918650
vn -0.309017 0.246151 -0.918650
s off
g crystal_Two
usemtl StingrayPBS23SG
f 8/15/1 7/8/2 9/9/3 10/10/4 11/7/5
f 1/14/6 2/11/7 6/13/8
f 2/2/9 3/4/10 6/3/11
f 3/12/12 4/5/13 6/13/14
f 4/5/15 5/6/16 6/13/17
f 5/6/18 1/14/19 6/13/20
f 1/14/21 5/6/22 7/8/23 8/15/24
f 5/6/25 4/5/26 9/9/27 7/8/28
f 4/5/29 3/4/30 10/10/31 9/9/32
f 3/4/33 2/2/34 11/1/35 10/10/36
f 2/11/37 1/14/38 8/15/39 11/7/40
