# This file uses meters as units for non-parametric coordinates.

mtllib stalactite_Four.mtl
g default
v -4.036908 1622.338596 7.169677
v 4.481035 1622.338596 7.169677
v -10.419738 1850.725195 13.552490
v 10.863870 1850.725195 13.552490
v -10.419738 1850.725195 -7.731113
v 10.863870 1850.725195 -7.731113
v -4.036908 1622.338596 -1.348300
v 4.481035 1622.338596 -1.348300
v -6.433535 1822.830541 9.566285
v 6.877666 1822.830541 9.566285
v 6.877666 1822.830541 -3.744908
v -6.433535 1822.830541 -3.744908
v -14.725684 1850.725195 2.910689
v 15.169816 1850.725195 2.910689
v 9.570698 1822.830541 2.910689
v 6.204331 1622.338596 2.910689
v -5.760204 1622.338596 2.910689
v -9.126566 1822.830541 2.910689
v 0.222062 1622.338596 8.892928
v 0.222062 1622.338596 -3.071551
v 0.222066 1822.830541 -6.437931
v 0.222066 1850.725195 -12.037066
v 0.222066 1850.725195 17.858443
v 0.222066 1822.830541 12.259309
v 5.226437 1824.732092 14.286753
v 0.222066 1824.732092 15.653992
v 3.893336 1822.830541 11.256278
v 9.294441 1824.732092 11.983049
v 6.092135 1850.725195 16.254618
v 13.566004 1850.725195 -2.959414
v 6.092135 1850.725195 -10.433241
v 5.226437 1824.732092 -8.465376
v 0.222066 1824.732092 -9.832615
v 9.294441 1824.732092 -6.161672
v 3.893336 1822.830541 -5.434901
v 2.571338 1622.338596 -2.429671
v 5.562438 1622.338596 0.561431
v 11.598084 1824.732092 -2.093699
v 12.965383 1824.732092 2.910689
v 8.567658 1822.830541 -0.760574
v -11.153952 1824.732092 -2.093699
v -8.123527 1822.830541 -0.760574
v -12.521252 1824.732092 2.910689
v -13.121872 1850.725195 -2.959414
v -8.850309 1824.732092 -6.161672
v 3.521411 1639.420439 10.410819
v 0.222065 1639.420439 11.312279
v 2.571338 1622.338596 8.251049
v 6.203418 1639.420439 8.892055
v 7.722189 1639.420439 -0.388689
v 8.623632 1639.420439 2.910689
v 6.203418 1639.420439 -3.070677
v 3.521411 1639.420439 -4.589442
v 0.222065 1639.420439 -5.490902
v -7.278060 1639.420439 -0.388689
v -5.118311 1622.338596 0.561431
v -8.179501 1639.420439 2.910689
v -5.759287 1639.420439 -3.070677
v 13.566004 1850.725195 8.780792
v 11.598084 1824.732092 7.915076
v 8.567658 1822.830541 6.581951
v 7.722189 1639.420439 6.210066
v 5.562438 1622.338596 5.259946
v -7.278060 1639.420439 6.210066
v -5.118311 1622.338596 5.259946
v -5.759287 1639.420439 8.892055
v -8.123527 1822.830541 6.581951
v -11.153952 1824.732092 7.915076
v -8.850309 1824.732092 11.983049
v -13.121872 1850.725195 8.780792
v -2.127211 1622.338596 8.251049
v -2.127211 1622.338596 -2.429671
v -3.077282 1639.420439 -4.589442
v -3.449204 1822.830541 -5.434901
v -4.782306 1824.732092 -8.465376
v -5.648003 1850.725195 -10.433241
v -5.648003 1850.725195 16.254618
v -4.782306 1824.732092 14.286753
v -3.449204 1822.830541 11.256278
v -3.077282 1639.420439 10.410819
v 0.222066 1866.756488 -22.516525
v 10.207490 1866.756488 -19.788345
v -25.205143 1866.756488 2.910689
v -22.476972 1866.756488 -7.074738
v -17.880409 1866.756488 21.013148
v -22.476972 1866.756488 12.896115
v -9.763359 1866.756488 25.609722
v 25.649275 1866.756488 2.910689
v 22.921103 1866.756488 -7.074738
v 18.324540 1866.756488 -15.191771
v 0.222066 1866.756488 28.337902
v 10.207490 1866.756488 25.609722
v 18.324540 1866.756488 21.013148
v 22.921103 1866.756488 12.896115
v -9.763359 1866.756488 -19.788345
v -17.880409 1866.756488 -15.191771
v 0.222066 1878.844391 -51.236237
v 18.412703 1878.844391 -38.440519
v 0.222066 1878.844391 -20.249909
v 19.966181 1878.844391 -16.833389
v 0.222066 1878.844391 2.910689
v 23.382663 1878.844391 2.910689
v 0.222066 1878.844391 26.071286
v 19.966181 1878.844391 22.654766
v -37.584188 1878.844391 2.910689
v -41.129163 1878.844391 -15.279905
v -22.938531 1878.844391 2.910689
v -19.522050 1878.844391 -16.833389
v -28.029014 1878.844391 35.888273
v -41.129163 1878.844391 21.101282
v -17.968572 1878.844391 44.261896
v -19.522050 1878.844391 22.654766
v 32.600036 1878.844391 2.910689
v 41.573294 1878.844391 -15.279905
v 25.527346 1878.844391 -26.319786
v 0.222066 1878.844391 33.547118
v 10.625627 1878.844391 44.261896
v 26.271783 1878.844391 32.084234
v 41.573294 1878.844391 21.101282
v -17.968572 1878.844391 -32.146679
v -32.755558 1878.844391 -30.066895
v 9.382428 1727.252042 -6.249671
v 11.708411 1727.252042 -2.142259
v 13.088938 1727.252042 2.910689
v 11.708411 1727.252042 7.963636
v 9.382428 1727.252042 12.071048
v 5.274987 1727.252042 14.397042
v 0.222066 1727.252042 15.777601
v -4.830856 1727.252042 14.397042
v -8.938296 1727.252042 12.071048
v -11.264279 1727.252042 7.963636
v -12.644806 1727.252042 2.910689
v -11.264279 1727.252042 -2.142259
v -8.938296 1727.252042 -6.249671
v -4.830856 1727.252042 -8.575665
v 0.222066 1727.252042 -9.956224
v 5.274987 1727.252042 -8.575665
v 0.222062 1586.004878 2.910689
vt 0.145762 0.808176
vt 0.133555 0.808812
vt 0.132138 0.777382
vt 0.141072 0.777070
vt 0.244831 0.846017
vt 0.006230 0.854714
vt 0.054624 0.909026
vt 0.212056 0.882816
vt 0.078781 0.753802
vt 0.070370 0.762519
vt 0.191896 0.796842
vt 0.179843 0.800916
vt 0.165247 0.771952
vt 0.173308 0.769112
vt 0.083293 0.770178
vt 0.090375 0.759559
vt 0.096432 0.761546
vt 0.090475 0.772642
vt 0.390260 0.835568
vt 0.378647 0.835568
vt 0.378647 0.770272
vt 0.390260 0.770272
vt 0.434275 0.835568
vt 0.422663 0.835568
vt 0.422663 0.770272
vt 0.434275 0.770272
vt 0.455065 0.757573
vt 0.290617 0.757573
vt 0.290617 0.770272
vt 0.455065 0.770272
vt 0.312624 0.770272
vt 0.312624 0.757573
vt 0.323019 0.757573
vt 0.180567 0.889495
vt 0.138721 0.918202
vt 0.136958 0.892801
vt 0.161060 0.885848
vt 0.149022 0.776167
vt 0.145917 0.764288
vt 0.152478 0.762880
vt 0.156774 0.774227
vt 0.323019 0.770272
vt 0.400655 0.770272
vt 0.400655 0.757573
vt 0.411050 0.757573
vt 0.411050 0.770272
vt 0.346245 0.835568
vt 0.334632 0.835568
vt 0.334632 0.770272
vt 0.099231 0.806693
vt 0.086782 0.804721
vt 0.098744 0.774759
vt 0.107358 0.776303
vt 0.346245 0.770272
vt 0.312624 0.835568
vt 0.302229 0.835568
vt 0.063119 0.798283
vt 0.052690 0.793152
vt 0.076862 0.766875
vt 0.060003 0.862204
vt 0.076283 0.864448
vt 0.094143 0.893131
vt 0.063155 0.889259
vt 0.091823 0.867235
vt 0.106219 0.866969
vt 0.120077 0.869278
vt 0.112285 0.887843
vt 0.115238 0.777184
vt 0.117292 0.765505
vt 0.124079 0.765743
vt 0.123245 0.777541
vt 0.302229 0.770272
vt 0.356640 0.770272
vt 0.356640 0.757573
vt 0.367034 0.757573
vt 0.131640 0.765739
vt 0.139174 0.765102
vt 0.156816 0.807132
vt 0.195033 0.859857
vt 0.212568 0.856449
vt 0.228364 0.850271
vt 0.041180 0.785699
vt 0.212934 0.786102
vt 0.203008 0.792321
vt 0.180247 0.766011
vt 0.172208 0.756016
vt 0.159615 0.761033
vt 0.166354 0.758536
vt 0.103367 0.763441
vt 0.074530 0.801732
vt 0.367035 0.770272
vt 0.378647 0.757573
vt 0.390260 0.757573
vt 0.400655 0.835568
vt 0.434275 0.757573
vt 0.444670 0.757573
vt 0.444670 0.770272
vt 0.444670 0.835568
vt 0.290617 0.835568
vt 0.455065 0.835568
vt 0.334632 0.757573
vt 0.135381 0.868507
vt 0.150471 0.868028
vt 0.164556 0.864607
vt 0.178809 0.863810
vt 0.167445 0.803914
vt 0.323019 0.835568
vt 0.411050 0.835568
vt 0.346245 0.757573
vt 0.110636 0.764664
vt 0.110201 0.808008
vt 0.356640 0.835568
vt 0.084753 0.756960
vt 0.027773 0.856282
vt 0.044788 0.857744
vt 0.121351 0.808504
vt 0.302229 0.757573
vt 0.009957 0.828241
vt 0.240056 0.824699
vt 0.077746 0.845652
vt 0.061879 0.842020
vt 0.106646 0.848929
vt 0.093191 0.847237
vt 0.119759 0.847808
vt 0.208490 0.836303
vt 0.192071 0.841228
vt 0.223818 0.831628
vt 0.149314 0.848002
vt 0.135024 0.849639
vt 0.162661 0.846713
vt 0.176448 0.843917
vt 0.029722 0.834451
vt 0.046272 0.838965
vt 0.265644 0.840711
vt 0.183220 0.749224
vt 0.186344 0.762118
vt 0.367035 0.835568
vt 0.222620 0.901163
vt 0.192395 0.757168
vt 0.444670 0.906623
vt 0.434275 0.906623
vt 0.223682 0.777487
vt 0.259736 0.815848
vt 0.177567 0.752917
vt 0.422663 0.906623
vt 0.411050 0.906623
vt 0.400655 0.906623
vt 0.390260 0.906623
vt 0.378647 0.906623
vt 0.367035 0.906623
vt 0.356640 0.906623
vt 0.346245 0.906623
vt 0.334632 0.906623
vt 0.323019 0.906623
vt 0.312624 0.906623
vt 0.302229 0.906623
vt 0.290617 0.906623
vt 0.334632 0.730562
vt 0.466678 0.757573
vt 0.466678 0.835568
vt 0.466678 0.770272
vt 0.466678 0.906623
vt 0.455065 0.906623
vt 0.422663 0.757573
vn 0.353475 -0.331995 0.874548
vn 0.000000 -0.345945 0.938255
vn 0.000000 -0.162136 0.986768
vn 0.369878 -0.165251 0.914266
vn 0.446450 0.612759 -0.652081
vn -0.045452 0.425987 -0.903587
vn 0.000000 1.000000 0.000000
vn 0.000000 1.000000 0.000000
vn 0.374997 -0.000807 -0.927026
vn 0.000000 -0.003401 -0.999994
vn 0.000000 -0.162136 -0.986768
vn 0.369879 -0.165251 -0.914266
vn 0.874548 -0.331995 -0.353475
vn 0.938255 -0.345944 0.000000
vn 0.986768 -0.162136 0.000000
vn 0.914266 -0.165252 -0.369879
vn -0.697649 -0.163011 -0.697649
vn -0.707102 -0.003493 -0.707103
vn -0.927026 -0.000807 -0.374995
vn -0.914266 -0.165252 -0.369879
vn 0.375156 -0.004082 0.926953
vn 0.000000 -0.004160 0.999991
vn 0.000000 -0.060982 0.998139
vn 0.374372 -0.059607 0.925361
vn 0.926954 -0.004083 -0.375154
vn 0.999991 -0.004160 0.000000
vn 0.998139 -0.060982 -0.000000
vn 0.925362 -0.059607 -0.374370
vn 0.624195 -0.165406 -0.763558
vn -0.000000 -0.208452 -0.978033
vn 0.000000 -0.060982 -0.998139
vn 0.374372 -0.059607 -0.925361
vn -0.705772 -0.061391 -0.705774
vn -0.697547 -0.163863 -0.697550
vn -0.763556 -0.165406 -0.624198
vn -0.925362 -0.059607 -0.374370
vn 0.697649 -0.163011 0.697649
vn 0.707102 -0.003493 0.707103
vn 0.927026 -0.000807 0.374995
vn 0.914266 -0.165252 0.369879
vn 0.705772 -0.061391 0.705774
vn 0.697547 -0.163864 0.697550
vn 0.763556 -0.165406 0.624198
vn 0.925362 -0.059607 0.374370
vn -0.926954 -0.004083 0.375153
vn -0.999991 -0.004160 0.000000
vn -0.998139 -0.060982 0.000000
vn -0.925362 -0.059607 0.374370
vn -0.874548 -0.331995 0.353475
vn -0.938255 -0.345944 0.000000
vn -0.986768 -0.162136 -0.000000
vn -0.914266 -0.165252 0.369879
vn -0.707100 -0.004187 -0.707101
vn -0.375156 -0.004082 -0.926953
vn -0.374372 -0.059607 -0.925361
vn -0.662848 -0.348228 -0.662850
vn -0.353475 -0.331995 -0.874548
vn -0.369879 -0.165251 -0.914266
vn -0.911661 0.316023 -0.262685
vn -0.776795 0.629754 0.000000
vn 0.000000 1.000000 0.000000
vn 0.000000 1.000000 -0.000000
vn -0.897595 0.287473 0.334189
vn -0.694825 0.083607 0.714303
vn -0.212610 0.351809 0.911607
vn 0.000000 1.000000 -0.000000
vn -0.697649 -0.163010 0.697649
vn -0.707102 -0.003493 0.707103
vn -0.374997 -0.000807 0.927026
vn -0.369879 -0.165251 0.914266
vn -0.705772 -0.061391 0.705774
vn -0.697547 -0.163863 0.697550
vn -0.624196 -0.165406 0.763558
vn -0.374372 -0.059607 0.925361
vn 0.000000 -0.003401 0.999994
vn 0.374997 -0.000807 0.927026
vn 0.662848 -0.348228 0.662850
vn 0.000000 1.000000 0.000000
vn 0.716721 0.697360 0.000000
vn 0.918207 0.176283 -0.354711
vn 0.657186 -0.379023 -0.651497
vn 0.000000 -0.345945 -0.938255
vn 0.353475 -0.331995 -0.874548
vn 0.662848 -0.348228 -0.662850
vn 0.697649 -0.163010 -0.697649
vn 0.707102 -0.003493 -0.707103
vn 0.999994 -0.003401 0.000000
vn 0.927026 -0.000807 -0.374995
vn -0.999994 -0.003401 0.000000
vn -0.874548 -0.331995 -0.353475
vn 0.000000 -0.208452 0.978033
vn 0.624195 -0.165406 0.763558
vn 0.707100 -0.004187 0.707101
vn 0.978032 -0.208453 -0.000000
vn 0.763556 -0.165406 -0.624198
vn 0.697547 -0.163863 -0.697551
vn 0.705772 -0.061391 -0.705774
vn 0.707100 -0.004187 -0.707101
vn 0.000000 -0.004160 -0.999991
vn 0.375156 -0.004082 -0.926953
vn -0.978033 -0.208452 -0.000000
vn -0.926954 -0.004083 -0.375153
vn 0.000000 1.000000 -0.000000
vn -0.004915 0.775694 0.631090
vn 0.226005 0.206802 0.951921
vn 0.000000 1.000000 -0.000000
vn 0.634213 -0.017477 0.772961
vn 0.905601 0.256158 0.338040
vn 0.874548 -0.331995 0.353475
vn 0.926954 -0.004083 0.375154
vn -0.763556 -0.165406 0.624198
vn -0.707100 -0.004187 0.707101
vn -0.927026 -0.000807 0.374995
vn -0.662848 -0.348228 0.662850
vn -0.624196 -0.165406 -0.763558
vn -0.374997 -0.000807 -0.927026
vn -0.387883 0.588445 -0.709422
vn -0.673216 0.101018 -0.732513
vn -0.353475 -0.331995 0.874548
vn -0.375156 -0.004082 0.926953
vn -0.038380 -0.837546 -0.545017
vn 0.317245 -0.783057 -0.534955
vn -0.693069 -0.720871 0.000000
vn -0.624745 -0.757529 -0.189323
vn -0.450261 -0.775043 0.443367
vn -0.620264 -0.752344 0.221925
vn -0.158138 -0.710424 0.685777
vn 0.661852 -0.714567 -0.226597
vn 0.759377 -0.650651 0.000000
vn 0.482607 -0.729454 -0.484755
vn 0.233453 -0.697336 0.677659
vn 0.000000 -0.630261 0.776384
vn 0.454978 -0.727729 0.513230
vn 0.662918 -0.715289 0.221138
vn -0.294619 -0.761094 -0.577872
vn -0.413553 -0.782850 -0.464887
vn 0.000000 1.000000 0.000000
vn -0.000000 -1.000000 -0.000000
s 1
g stalactite_One2
usemtl StingrayPBS46SG
f 29/1/1 23/2/2 26/3/3 25/4/4
f 98/5/5 97/134/6 99/138/7 100/8/8
f 35/144/9 21/135/10 33/139/11 32/136/12
f 30/11/13 14/12/14 39/13/15 38/14/16
f 45/15/17 12/16/18 42/17/19 41/18/20
f 127/19/21 128/20/22 47/21/23 46/22/24
f 123/23/25 124/24/26 51/25/27 50/26/28
f 36/27/29 20/159/30 54/161/31 53/30/32
f 58/31/33 7/32/34 56/33/35 55/42/36
f 28/38/37 10/39/38 61/40/39 60/41/40
f 49/43/41 2/44/42 63/45/43 62/46/44
f 131/47/45 132/48/46 57/49/47 64/54/48
f 70/50/49 13/51/50 43/52/51 68/53/52
f 58/31/33 134/55/53 135/56/54 73/72/55
f 45/15/17 5/57/56 76/58/57 75/59/58
f 106/60/59 105/61/60 107/62/61 108/63/62
f 110/64/63 109/65/64 111/66/65 112/67/66
f 69/68/67 9/69/68 79/70/69 78/71/70
f 66/73/71 1/74/72 71/75/73 80/91/74
f 26/3/3 24/76/75 27/77/76 25/4/4
f 27/77/76 10/39/38 28/38/37 25/4/4
f 28/38/37 4/78/77 29/1/1 25/4/4
f 100/8/8 102/34/78 113/79/79 114/80/80
f 114/80/80 115/81/81 98/5/5 100/8/8
f 33/139/11 22/142/82 31/83/83 32/136/12
f 31/83/83 6/84/84 34/85/85 32/136/12
f 34/85/85 11/86/86 35/144/9 32/136/12
f 39/13/15 15/87/87 40/88/88 38/14/16
f 40/88/88 11/86/86 34/85/85 38/14/16
f 34/85/85 6/84/84 30/11/13 38/14/16
f 42/17/19 18/89/89 43/52/51 41/18/20
f 43/52/51 13/51/50 44/90/90 41/18/20
f 44/90/90 5/57/56 45/15/17 41/18/20
f 47/21/23 19/92/91 48/93/92 46/22/24
f 48/93/92 2/44/42 49/43/41 46/22/24
f 49/43/41 126/94/93 127/19/21 46/22/24
f 51/25/27 16/164/94 37/95/95 50/26/28
f 37/95/95 8/96/96 52/97/97 50/26/28
f 52/97/97 122/98/98 123/23/25 50/26/28
f 54/161/31 136/160/99 137/100/100 53/30/32
f 137/100/100 122/98/98 52/97/97 53/30/32
f 52/97/97 8/96/96 36/27/29 53/30/32
f 56/33/35 17/101/101 57/49/47 55/42/36
f 57/49/47 132/48/46 133/107/102 55/42/36
f 133/107/102 134/55/53 58/31/33 55/42/36
f 103/36/103 116/102/104 117/103/105 104/37/106
f 117/103/105 118/104/107 119/105/108 104/37/106
f 119/105/108 113/79/79 102/34/78 104/37/106
f 61/40/39 15/87/87 39/13/15 60/41/40
f 39/13/15 14/12/14 59/106/109 60/41/40
f 59/106/109 4/78/77 28/38/37 60/41/40
f 63/45/43 16/164/94 51/25/27 62/46/44
f 51/25/27 124/24/26 125/108/110 62/46/44
f 125/108/110 126/94/93 49/43/41 62/46/44
f 57/49/47 17/101/101 65/109/111 64/54/48
f 65/109/111 1/74/72 66/73/71 64/54/48
f 66/73/71 130/112/112 131/47/45 64/54/48
f 43/52/51 18/89/89 67/110/113 68/53/52
f 67/110/113 9/69/68 69/68/67 68/53/52
f 69/68/67 3/111/114 70/50/49 68/53/52
f 135/56/54 136/99/99 54/29/31 73/72/55
f 54/29/31 20/28/30 72/117/115 73/72/55
f 72/117/115 7/32/34 58/31/33 73/72/55
f 76/58/57 22/82/82 33/10/11 75/59/58
f 33/10/11 21/9/10 74/113/116 75/59/58
f 74/113/116 12/16/18 45/15/17 75/59/58
f 99/7/7 97/6/6 120/114/117 108/63/62
f 120/114/117 121/115/118 106/60/59 108/63/62
f 111/66/65 116/102/104 103/36/103 112/67/66
f 107/62/61 105/61/60 110/64/63 112/67/66
f 79/70/69 24/76/75 26/3/3 78/71/70
f 26/3/3 23/2/2 77/116/119 78/71/70
f 77/116/119 3/111/114 69/68/67 78/71/70
f 71/75/73 19/92/91 47/21/23 80/91/74
f 47/21/23 128/20/22 129/137/120 80/91/74
f 129/137/120 130/112/112 66/73/71 80/91/74
f 31/83/83 22/142/82 81/143/121 82/119/122
f 44/90/90 13/51/50 83/120/123 84/121/124
f 70/50/49 3/111/114 85/122/125 86/123/126
f 3/111/114 77/116/119 87/124/127 85/122/125
f 14/12/14 30/11/13 89/125/128 88/126/129
f 30/11/13 6/84/84 90/127/130 89/125/128
f 6/84/84 31/83/83 82/119/122 90/127/130
f 23/2/2 29/1/1 92/128/131 91/129/132
f 29/1/1 4/78/77 93/130/133 92/128/131
f 4/78/77 59/106/109 94/131/134 93/130/133
f 59/106/109 14/12/14 88/126/129 94/131/134
f 22/82/82 76/58/57 95/132/135 81/118/121
f 76/58/57 5/57/56 96/133/136 95/132/135
f 5/57/56 44/90/90 84/121/124 96/133/136
f 77/116/119 23/2/2 91/129/132 87/124/127
f 13/51/50 70/50/49 86/123/126 83/120/123
f 82/119/122 81/143/121 97/134/6 98/5/5
f 84/121/124 83/120/123 105/61/60 106/60/59
f 86/123/126 85/122/125 109/65/64 110/64/63
f 85/122/125 87/124/127 111/66/65 109/65/64
f 88/126/129 89/125/128 114/80/80 113/79/79
f 89/125/128 90/127/130 115/81/81 114/80/80
f 90/127/130 82/119/122 98/5/5 115/81/81
f 91/129/132 92/128/131 117/103/105 116/102/104
f 92/128/131 93/130/133 118/104/107 117/103/105
f 93/130/133 94/131/134 119/105/108 118/104/107
f 94/131/134 88/126/129 113/79/79 119/105/108
f 81/118/121 95/132/135 120/114/117 97/6/6
f 95/132/135 96/133/136 121/115/118 120/114/117
f 96/133/136 84/121/124 106/60/59 121/115/118
f 87/124/127 91/129/132 116/102/104 111/66/65
f 83/120/123 86/123/126 110/64/63 105/61/60
f 123/23/25 122/98/98 11/140/86 40/141/88
f 40/141/88 15/145/87 124/24/26 123/23/25
f 125/108/110 124/24/26 15/145/87 61/146/39
f 61/146/39 10/147/38 126/94/93 125/108/110
f 127/19/21 126/94/93 10/147/38 27/148/76
f 27/148/76 24/149/75 128/20/22 127/19/21
f 129/137/120 128/20/22 24/149/75 79/150/69
f 79/150/69 9/151/68 130/112/112 129/137/120
f 131/47/45 130/112/112 9/151/68 67/152/113
f 67/152/113 18/153/89 132/48/46 131/47/45
f 133/107/102 132/48/46 18/153/89 42/154/19
f 42/154/19 12/155/18 134/55/53 133/107/102
f 135/56/54 134/55/53 12/155/18 74/156/116
f 74/156/116 21/157/10 136/99/99 135/56/54
f 137/100/100 136/160/99 21/162/10 35/163/9
f 35/163/9 11/140/86 122/98/98 137/100/100
f 103/36/103 101/35/137 107/62/61 112/67/66
f 101/35/137 99/7/7 108/63/62 107/62/61
f 101/35/137 103/36/103 104/37/106 102/34/78
f 101/35/137 102/34/78 100/8/8 99/138/7
f 71/75/73 1/74/72 65/109/111 17/101/101 138/158/138 19/92/91
f 20/28/30 138/158/138 17/101/101 56/33/35 7/32/34 72/117/115
f 16/164/94 138/158/138 20/159/30 36/27/29 8/96/96 37/95/95
f 19/92/91 138/158/138 16/164/94 63/45/43 2/44/42 48/93/92
