# This file uses meters as units for non-parametric coordinates.

mtllib platformLevelThree.mtl
g default
v -146.974597 88.760049 1506.542500
v 147.043440 88.760049 1506.542500
v -146.974597 677.982927 1506.542500
v 147.043440 677.982927 1506.542500
v -146.974597 677.982927 1082.698161
v 147.043440 677.982927 1082.698161
v -146.974597 88.760049 1082.698161
v 147.043440 88.760049 1082.698161
v -146.974597 581.208887 1506.542500
v 147.043440 581.208887 1506.542500
v 147.043440 581.208887 1082.698161
v -146.974597 581.208887 1082.698161
v -195.427254 581.208887 1082.698161
v -195.427254 581.208887 1506.542500
v -195.427254 655.607782 1506.542500
v -195.427254 655.607782 1082.698161
vt 0.581648 0.558764
vt 0.570926 0.494005
vt 0.794408 0.558764
vt 0.581648 0.558764
vt 0.794408 0.806586
vt 0.581648 0.806586
vt 0.786030 0.494005
vt 0.581648 0.806586
vt 0.581648 0.806586
vt 0.794408 0.806586
vt 0.794408 0.558764
vt 0.581648 0.558764
vt 0.546586 0.806586
vt 0.546586 0.558764
vt 0.546586 0.558764
vt 0.546586 0.806586
vt 0.157043 0.574599
vt 0.509800 0.574599
vt 0.509800 0.632536
vt 0.157043 0.632536
vt 0.509800 0.574599
vt 0.157043 0.574599
vt 0.157043 0.619141
vt 0.509800 0.619141
vt 0.157043 0.279780
vt 0.157043 0.279780
vt 0.157043 0.574599
vt 0.509800 0.279780
vt 0.509800 0.279780
vt 0.509800 0.574599
vt 0.786030 0.535156
vt 0.570926 0.535156
vt 0.570926 0.535156
vt 0.786030 0.535156
vt 0.786030 0.494005
vt 0.570926 0.494005
vt 0.570926 0.284604
vt 0.786030 0.284604
vt 0.786030 0.284604
vt 0.570926 0.284604
vt 0.535478 0.525642
vt 0.535478 0.494005
vt 0.535478 0.494005
vt 0.535478 0.525642
vn 0.000000 0.000000 1.000000
vn 0.000000 0.000000 1.000000
vn 0.000000 0.000000 1.000000
vn 0.000000 0.000000 1.000000
vn 0.000000 1.000000 0.000000
vn 0.000000 1.000000 0.000000
vn 0.000000 1.000000 0.000000
vn 0.000000 1.000000 0.000000
vn 0.000000 0.000000 -1.000000
vn 0.000000 0.000000 -1.000000
vn 0.000000 0.000000 -1.000000
vn 0.000000 0.000000 -1.000000
vn 0.000000 -1.000000 0.000000
vn 0.000000 -1.000000 0.000000
vn 0.000000 -1.000000 0.000000
vn 0.000000 -1.000000 0.000000
vn 1.000000 0.000000 0.000000
vn 1.000000 0.000000 0.000000
vn 1.000000 0.000000 0.000000
vn 1.000000 0.000000 0.000000
vn -1.000000 0.000000 0.000000
vn -1.000000 0.000000 0.000000
vn -1.000000 0.000000 0.000000
vn -1.000000 0.000000 0.000000
vn 0.000000 0.000000 1.000000
vn 0.000000 0.000000 1.000000
vn 1.000000 0.000000 0.000000
vn 1.000000 0.000000 0.000000
vn 0.000000 0.000000 -1.000000
vn 0.000000 0.000000 -1.000000
vn -1.000000 0.000000 0.000000
vn -1.000000 0.000000 0.000000
vn -1.000000 0.000000 0.000000
vn -1.000000 0.000000 0.000000
vn 0.000000 -1.000000 0.000000
vn 0.000000 -1.000000 0.000000
vn 0.000000 -1.000000 0.000000
vn 0.000000 -1.000000 0.000000
vn 0.000000 0.000000 1.000000
vn 0.000000 0.000000 1.000000
vn -0.419249 0.907871 0.000000
vn -0.419249 0.907871 0.000000
vn -0.419249 0.907871 0.000000
vn -0.419249 0.907871 0.000000
vn 0.000000 0.000000 -1.000000
vn 0.000000 0.000000 -1.000000
s 1
g platform_Three
usemtl StingrayPBS52SG
f 9/2/1 10/7/2 4/31/3 3/32/4
s off
f 3/4/5 4/3/6 6/5/7 5/6/8
s 2
f 5/33/9 6/34/10 11/35/11 12/36/12
s off
f 7/9/13 8/10/14 2/11/15 1/12/16
s 3
f 10/17/17 11/18/18 6/19/19 4/20/20
s off
f 13/21/21 14/22/22 15/23/23 16/24/24
s 1
f 1/37/25 2/38/26 10/7/2 9/2/1
s 3
f 2/26/27 8/28/28 11/18/18 10/17/17
s 2
f 12/36/12 11/35/11 8/39/29 7/40/30
s off
f 7/29/31 1/25/32 9/27/33 12/30/34
f 12/8/35 9/1/36 14/14/37 13/13/38
s 1
f 9/2/1 3/32/4 15/41/39 14/42/40
s off
f 3/4/41 5/6/42 16/16/43 15/15/44
s 2
f 5/33/9 12/36/12 13/43/45 16/44/46
