# This file uses meters as units for non-parametric coordinates.

mtllib Platform_Float_Two.mtl
g default
v -120.609568 2823.378224 -369.952556
v 72.662756 2791.948571 -384.053099
v -98.271265 2853.654091 -394.662453
v 48.055104 2853.654091 -398.862120
v -72.824930 2853.654091 -608.639840
v 124.803716 2853.654262 -583.688923
v -104.896096 2823.378224 -641.018849
v 157.508835 2823.378224 -605.621033
v -43.281635 2833.185782 -320.739179
v -50.415120 2823.377950 -294.116653
v 61.822633 2833.185782 -375.188500
v -36.247588 2853.654091 -355.189081
v -120.609568 2833.185782 -369.952556
v -1.531980 2853.654262 -484.749492
v 87.528467 2853.654262 -460.885817
v 62.780027 2853.654262 -623.162305
v -112.298304 2853.654226 -546.616128
v 80.180906 2833.185782 -654.834423
v 157.508835 2833.185782 -605.621033
v 83.487421 2791.049405 -667.174502
v -88.884404 2833.185782 -636.728529
v 0.000000 2728.557119 -482.268441
v 142.553846 2823.377950 -444.071253
v -143.183069 2823.377950 -560.763189
v 111.036003 2833.185782 -452.516434
v -138.097756 2833.185782 -559.400583
v -89.079035 2828.281934 -318.723292
v -120.609568 2828.282003 -369.952556
v -89.079088 2823.378087 -318.723335
v -50.415120 2828.281866 -294.116653
v -81.945603 2833.185782 -345.345861
v -63.086403 2853.654269 -454.017534
v -126.251488 2853.654226 -476.257310
v -67.259431 2853.654094 -374.925743
v -18.889786 2853.654176 -419.969280
v -56.915150 2853.654310 -515.682814
v -10.281950 2842.143819 -667.696590
v -88.884404 2837.674349 -636.728529
v -12.850315 2853.654176 -633.149991
v 80.180906 2846.188060 -654.834423
v -14.111127 2833.185782 -667.286521
v -23.659581 2696.228622 -582.136481
v -113.491087 2823.378087 -598.064558
v -30.122819 2791.049542 -671.576841
v 40.090453 2696.228553 -568.551432
v -47.640099 2728.557119 -515.098047
v 132.094336 2828.281934 -401.616626
v 67.069130 2828.282003 -363.177401
v 137.687932 2791.948434 -422.492264
v 142.553846 2828.281866 -444.071253
v 116.103409 2833.185782 -405.901318
v -113.491104 2828.281934 -598.064492
v -104.896096 2828.282003 -641.018849
v -164.591848 2828.281866 -566.499654
v -113.491087 2833.185782 -598.064558
v 0.752563 2828.281934 -316.174643
v 3.191747 2791.948434 -325.277627
v 9.270498 2833.185782 -347.963836
v 9.270437 2837.674417 -347.963796
v 61.822633 2837.674349 -375.188500
v 5.903767 2853.654094 -377.025602
v -43.281635 2837.674486 -320.739179
v -81.945557 2837.674418 -345.345820
v -120.609568 2837.674349 -369.952556
v 17.763273 2853.654178 -423.841162
v 91.592971 2853.654176 -423.496464
v 42.998262 2853.654262 -472.817650
v 65.279002 2853.654262 -536.251237
v 106.166086 2853.654262 -522.287365
v 93.791876 2853.654262 -603.425627
v 30.624030 2853.654262 -553.955904
v -20.541842 2853.654190 -564.849815
v -92.561642 2853.654091 -577.627996
v 118.844811 2846.187992 -630.227729
v 157.508835 2846.187923 -605.621033
v 118.844867 2833.185782 -630.227729
v 122.151322 2828.281934 -642.567824
v 157.508835 2828.282003 -605.621033
v 122.151382 2823.378087 -642.567808
v 83.487421 2828.281866 -667.174502
v -30.122759 2828.281935 -671.576825
v 83.296483 2728.557181 -546.478154
v 165.790262 2823.378087 -520.623553
v 55.518002 2728.557119 -467.392438
v 29.531506 2697.127528 -427.191262
v -21.640818 2728.557119 -401.503810
v -55.424123 2728.557181 -438.161721
v -160.579212 2823.378087 -473.043431
v 165.790246 2828.281934 -520.623493
v 134.272419 2833.185782 -529.068733
v 134.272405 2846.187993 -529.068680
v 111.036003 2846.188060 -452.516434
v 118.009030 2842.323243 -408.895573
v -181.988016 2828.281934 -478.779963
v -155.493886 2833.185782 -471.680822
v -155.493896 2837.674417 -471.680888
v -138.097756 2837.674486 -559.400583
v -113.491129 2837.674418 -598.064506
vt 0.375000 0.000000
vt 0.625000 0.000000
vt 0.375000 0.250000
vt 0.625000 0.250000
vt 0.375000 0.500000
vt 0.625000 0.500000
vt 0.375000 0.750000
vt 0.625000 0.750000
vt 0.375000 1.000000
vt 0.625000 1.000000
vt 0.875000 0.000000
vt 0.875000 0.250000
vt 0.125000 0.000000
vt 0.125000 0.250000
vt 0.500000 0.125000
vt 0.500000 0.000000
vt 0.500000 1.000000
vt 0.625000 0.125000
vt 0.500000 0.250000
vt 0.375000 0.125000
vt 0.500000 0.375000
vt 0.625000 0.375000
vt 0.750000 0.250000
vt 0.500000 0.500000
vt 0.250000 0.250000
vt 0.375000 0.375000
vt 0.500000 0.625000
vt 0.625000 0.625000
vt 0.875000 0.125000
vt 0.500000 0.750000
vt 0.125000 0.125000
vt 0.375000 0.625000
vt 0.500000 0.875000
vt 0.625000 0.875000
vt 0.750000 0.000000
vt 0.500000 1.000000
vt 0.250000 0.000000
vt 0.375000 0.875000
vt 0.750000 0.125000
vt 0.750000 0.000000
vt 0.875000 0.125000
vt 0.750000 0.250000
vt 0.250000 0.125000
vt 0.250000 0.000000
vt 0.250000 0.250000
vt 0.125000 0.125000
vt 0.437500 0.062500
vt 0.375000 0.062500
vt 0.437500 0.000000
vt 0.437500 1.000000
vt 0.500000 0.062500
vt 0.437500 0.125000
vt 0.435226 0.319419
vt 0.312500 0.250000
vt 0.375000 0.312500
vt 0.437500 0.250000
vt 0.500000 0.312500
vt 0.437500 0.375000
vt 0.440331 0.562359
vt 0.125000 0.187500
vt 0.375000 0.562500
vt 0.437500 0.500000
vt 0.500000 0.562500
vt 0.437500 0.625000
vt 0.447602 0.811286
vt 0.187500 0.000000
vt 0.375000 0.812500
vt 0.437500 0.750000
vt 0.500000 0.812500
vt 0.437500 0.875000
vt 0.687500 0.062500
vt 0.625000 0.062500
vt 0.625000 0.937500
vt 0.687500 0.000000
vt 0.750000 0.062500
vt 0.687500 0.125000
vt 0.187500 0.062500
vt 0.125000 0.062500
vt 0.375000 0.687500
vt 0.187500 0.000000
vt 0.250000 0.062500
vt 0.187500 0.125000
vt 0.562500 0.062500
vt 0.562500 0.000000
vt 0.562500 1.000000
vt 0.562500 0.125000
vt 0.562500 0.187500
vt 0.625000 0.187500
vt 0.562500 0.250000
vt 0.500000 0.187500
vt 0.437500 0.187500
vt 0.375000 0.187500
vt 0.553041 0.312068
vt 0.625000 0.312500
vt 0.687500 0.250000
vt 0.562500 0.375000
vt 0.559102 0.434886
vt 0.625000 0.437500
vt 0.812500 0.250000
vt 0.562500 0.500000
vt 0.500000 0.437500
vt 0.447573 0.438704
vt 0.187500 0.250000
vt 0.375000 0.437500
vt 0.562500 0.562500
vt 0.625000 0.562500
vt 0.875000 0.187500
vt 0.562500 0.625000
vt 0.562500 0.687500
vt 0.625000 0.687500
vt 0.875000 0.062500
vt 0.562500 0.750000
vt 0.500000 0.687500
vt 0.437500 0.687500
vt 0.375000 0.687500
vt 0.559102 0.815114
vt 0.625000 0.812500
vt 0.812500 0.000000
vt 0.562500 0.875000
vt 0.552905 0.937934
vt 0.625000 0.937500
vt 0.562500 1.000000
vt 0.500000 0.937500
vt 0.435130 0.930655
vt 0.437500 1.000000
vt 0.312500 0.000000
vt 0.375000 0.937500
vt 0.812500 0.062500
vt 0.812500 0.000000
vt 0.875000 0.062500
vt 0.812500 0.125000
vt 0.812500 0.187500
vt 0.875000 0.187500
vt 0.812500 0.250000
vt 0.750000 0.187500
vt 0.692340 0.187946
vt 0.687500 0.250000
vt 0.312500 0.062500
vt 0.312500 0.000000
vt 0.312500 0.125000
vt 0.312500 0.187500
vt 0.312500 0.250000
vt 0.250000 0.187500
vt 0.187500 0.187500
vt 0.187500 0.250000
vt 0.125000 0.187500
vn -0.282531 0.885397 0.369118
vn -0.541656 0.779327 0.315052
vn -0.784118 0.445724 0.431844
vn -0.311326 0.889204 0.335249
vn -0.000000 1.000000 -0.000001
vn -0.195221 0.978704 -0.063465
vn -0.244442 0.969463 0.019754
vn -0.000000 1.000000 0.000001
vn -0.047145 0.596317 -0.801363
vn -0.356571 0.733891 -0.578153
vn -0.324251 0.820105 -0.471476
vn -0.048752 0.817415 -0.573982
vn -0.564814 -0.824564 -0.032863
vn -0.642561 -0.754705 -0.132426
vn -0.693559 -0.651212 -0.308056
vn -0.287451 -0.861267 -0.419036
vn 0.397764 0.872604 0.283452
vn 0.270927 0.840429 0.469337
vn 0.572060 0.044710 0.818992
vn 0.623952 0.026009 0.781030
vn -0.554911 0.741906 -0.376363
vn -0.488257 0.311348 -0.815272
vn -0.733530 0.465786 -0.494951
vn 0.148975 0.696023 0.702394
vn -0.237833 -0.705216 0.667911
vn 0.233388 -0.622282 0.747192
vn 0.514299 0.313923 0.798091
vn 0.206404 0.905391 0.371032
vn 0.284246 0.786508 0.548279
vn 0.279792 0.793741 0.540085
vn -0.011771 0.831371 0.555593
vn 0.015639 0.971967 0.234595
vn -0.077362 0.989565 0.121558
vn -0.288875 0.842927 0.453901
vn 0.000000 1.000000 0.000002
vn 0.111652 0.970094 0.215524
vn 0.000000 1.000000 0.000002
vn -0.000000 1.000000 0.000001
vn 0.089757 0.995802 0.017970
vn 0.110755 0.993279 0.033618
vn -0.000000 1.000000 0.000000
vn -0.000000 1.000000 -0.000000
vn 0.019576 0.993629 -0.110985
vn -0.041586 0.986494 -0.158431
vn -0.000001 1.000000 -0.000001
vn 0.147757 0.828238 -0.540546
vn 0.038831 0.997381 -0.061013
vn 0.278658 0.854774 -0.437849
vn 0.500885 0.430015 -0.751133
vn 0.754292 0.641460 -0.139904
vn 0.576264 0.797062 -0.180587
vn 0.512602 0.460719 -0.724553
vn 0.140431 0.199539 -0.969775
vn 0.360466 -0.614893 -0.701406
vn -0.234657 -0.599443 -0.765248
vn -0.105123 0.216054 -0.970706
vn 0.226212 -0.906470 -0.356568
vn 0.701940 -0.616140 -0.357284
vn 0.647825 -0.761590 -0.017434
vn 0.535207 -0.844419 0.022556
vn 0.764546 -0.631249 0.130360
vn 0.713281 -0.651840 0.257553
vn 0.294132 -0.889519 0.349632
vn -0.246754 -0.847245 0.470414
vn -0.560044 -0.707362 0.431265
vn -0.537510 -0.830356 0.146941
vn 0.429989 0.896565 0.106213
vn 0.731838 -0.680053 0.044058
vn 0.379860 0.923392 0.055255
vn 0.566976 0.808963 0.155298
vn 0.652360 0.747315 -0.126283
vn 0.631537 0.751275 0.191694
vn 0.634163 0.766705 0.100004
vn 0.147422 0.977972 0.147778
vn 0.571594 0.751990 0.328317
vn -0.848632 0.428757 -0.309825
vn -0.630804 -0.773847 0.056981
vn -0.919931 0.389221 0.047266
vn -0.438678 0.895813 0.071284
vn -0.488411 0.818954 0.301279
vn -0.590054 0.805048 0.061108
vn -0.571832 0.797116 -0.193943
vn -0.126236 0.988742 -0.080341
vn -0.498376 0.806857 -0.317180
vn -0.661098 -0.683991 0.308390
vn 0.012716 0.957997 0.286495
vn -0.207021 0.971622 0.114426
vn 0.000000 1.000000 0.000000
vn -0.127461 0.979548 -0.155689
vn 0.230470 0.531294 -0.815236
vn -0.636956 -0.543342 -0.546869
vn -0.047419 -0.994060 0.097964
vn 0.503614 -0.487127 0.713498
vn 0.518083 0.850494 0.090827
vn -0.346780 0.927189 -0.141646
vn 0.111766 0.968550 0.222303
vn 0.127403 0.991793 -0.010751
vn 0.703767 -0.664292 -0.251850
s 1
g Platform_One1
usemtl initialShadingGroup
f 31/52/1 13/20/2 28/48/3 27/47/4
f 36/58/5 17/26/6 33/55/7 32/53/8
f 41/64/9 21/32/10 38/61/11 37/59/12
f 46/70/13 24/38/14 43/67/15 42/65/16
f 51/76/17 11/18/18 48/72/19 47/71/20
f 55/82/21 21/46/10 53/78/22 52/77/23
f 30/51/24 10/16/25 57/84/26 56/83/27
f 58/86/28 11/18/18 60/88/29 59/87/30
f 62/90/31 12/19/32 34/56/33 63/91/34
f 35/57/35 12/19/32 61/89/36 65/93/37
f 67/96/38 15/22/39 69/98/40 68/97/41
f 71/101/42 16/24/43 39/62/44 72/102/45
f 40/63/46 16/24/43 70/100/47 74/105/48
f 76/108/49 19/28/50 78/110/51 77/109/52
f 80/113/53 20/30/54 44/68/55 81/114/56
f 45/69/57 20/30/54 79/112/58 82/116/59
f 84/119/60 23/34/61 49/121/62 85/120/63
f 86/123/64 10/36/25 29/125/65 87/124/66
f 50/75/67 23/40/61 83/129/68 89/128/69
f 90/131/70 19/41/50 75/133/71 91/132/72
f 92/135/73 15/42/39 66/137/74 93/136/75
f 54/81/76 24/44/14 88/139/77 94/138/78
f 95/140/79 13/20/2 64/92/80 96/141/81
f 97/143/82 17/45/6 73/145/83 98/144/84
f 28/48/3 1/1/85 29/49/65 27/47/4
f 29/49/65 10/16/25 30/51/24 27/47/4
f 30/51/24 9/15/86 31/52/1 27/47/4
f 33/55/7 3/3/87 34/56/33 32/53/8
f 34/56/33 12/19/32 35/57/35 32/53/8
f 35/57/35 14/21/88 36/58/5 32/53/8
f 38/61/11 5/5/89 39/62/44 37/59/12
f 39/62/44 16/24/43 40/63/46 37/59/12
f 40/63/46 18/27/90 41/64/9 37/59/12
f 43/67/15 7/7/91 44/68/55 42/65/16
f 44/68/55 20/30/54 45/69/57 42/65/16
f 45/69/57 22/33/92 46/70/13 42/65/16
f 48/72/19 2/2/93 49/74/62 47/71/20
f 49/74/62 23/40/61 50/75/67 47/71/20
f 50/75/67 25/39/94 51/76/17 47/71/20
f 53/78/22 7/13/91 43/80/15 52/77/23
f 43/80/15 24/44/14 54/81/76 52/77/23
f 54/81/76 26/43/95 55/82/21 52/77/23
f 57/84/26 2/2/93 48/72/19 56/83/27
f 48/72/19 11/18/18 58/86/28 56/83/27
f 58/86/28 9/15/86 30/51/24 56/83/27
f 60/88/29 4/4/96 61/89/36 59/87/30
f 61/89/36 12/19/32 62/90/31 59/87/30
f 62/90/31 9/15/86 58/86/28 59/87/30
f 34/56/33 3/3/87 64/92/80 63/91/34
f 64/92/80 13/20/2 31/52/1 63/91/34
f 31/52/1 9/15/86 62/90/31 63/91/34
f 61/89/36 4/4/96 66/94/74 65/93/37
f 66/94/74 15/22/39 67/96/38 65/93/37
f 67/96/38 14/21/88 35/57/35 65/93/37
f 69/98/40 6/6/97 70/100/47 68/97/41
f 70/100/47 16/24/43 71/101/42 68/97/41
f 71/101/42 14/21/88 67/96/38 68/97/41
f 39/62/44 5/5/89 73/104/83 72/102/45
f 73/104/83 17/26/6 36/58/5 72/102/45
f 36/58/5 14/21/88 71/101/42 72/102/45
f 70/100/47 6/6/97 75/106/71 74/105/48
f 75/106/71 19/28/50 76/108/49 74/105/48
f 76/108/49 18/27/90 40/63/46 74/105/48
f 78/110/51 8/8/98 79/112/58 77/109/52
f 79/112/58 20/30/54 80/113/53 77/109/52
f 80/113/53 18/27/90 76/108/49 77/109/52
f 44/68/55 7/7/91 53/115/22 81/114/56
f 53/115/22 21/32/10 41/64/9 81/114/56
f 41/64/9 18/27/90 80/113/53 81/114/56
f 79/112/58 8/8/98 83/117/68 82/116/59
f 83/117/68 23/34/61 84/119/60 82/116/59
f 84/119/60 22/33/92 45/69/57 82/116/59
f 49/121/62 2/10/93 57/122/26 85/120/63
f 57/122/26 10/36/25 86/123/64 85/120/63
f 86/123/64 22/33/92 84/119/60 85/120/63
f 29/125/65 1/9/85 88/127/77 87/124/66
f 88/127/77 24/38/14 46/70/13 87/124/66
f 46/70/13 22/33/92 86/123/64 87/124/66
f 83/129/68 8/11/98 78/130/51 89/128/69
f 78/130/51 19/41/50 90/131/70 89/128/69
f 90/131/70 25/39/94 50/75/67 89/128/69
f 75/133/71 6/12/97 69/134/40 91/132/72
f 69/134/40 15/42/39 92/135/73 91/132/72
f 92/135/73 25/39/94 90/131/70 91/132/72
f 66/137/74 4/4/96 60/88/29 93/136/75
f 60/88/29 11/18/18 51/76/17 93/136/75
f 51/76/17 25/39/94 92/135/73 93/136/75
f 88/139/77 1/1/85 28/48/3 94/138/78
f 28/48/3 13/20/2 95/140/79 94/138/78
f 95/140/79 26/43/95 54/81/76 94/138/78
f 64/92/80 3/3/87 33/142/7 96/141/81
f 33/142/7 17/45/6 97/143/82 96/141/81
f 97/143/82 26/43/95 95/140/79 96/141/81
f 73/145/83 5/14/89 38/146/11 98/144/84
f 38/146/11 21/46/10 55/82/21 98/144/84
f 55/82/21 26/43/95 97/143/82 98/144/84
