# This file uses meters as units for non-parametric coordinates.

mtllib platformOne(2).mtl
g default
v -4.672654 2116.764117 297.493675
v 96.272589 2091.722013 180.659962
v -6.008808 2140.886924 270.986756
v 74.065265 2140.886924 186.180503
v -112.227058 2140.886924 136.095616
v 13.174096 2140.887060 38.809117
v -148.538237 2116.764117 135.922177
v 19.243601 2116.764117 8.026544
v 66.620622 2124.578454 281.653956
v 77.600733 2116.763899 300.672066
v 95.159580 2124.578454 191.761587
v 51.174550 2140.886924 258.281931
v -4.672654 2124.578454 297.493675
v -2.260939 2140.887060 165.728949
v 61.360424 2140.887060 128.997138
v -44.009275 2140.887060 51.513942
v -99.522215 2140.887031 193.278996
v -52.049680 2124.578454 23.866254
v 19.243601 2124.578454 8.026544
v -57.139184 2091.005587 15.050975
v -137.100099 2124.578454 129.318365
v 0.000000 2041.213806 166.263655
v 101.834993 2116.763899 107.469194
v -124.893111 2116.763899 202.709005
v 79.319857 2124.578454 120.468314
v -121.260358 2124.578454 200.611635
v 41.954151 2120.671231 308.591925
v -4.672654 2120.671286 297.493675
v 41.954097 2116.764008 308.591930
v 77.600733 2120.671176 300.672066
v 30.973986 2124.578454 289.573820
v -19.626291 2140.887066 217.723025
v -67.743324 2140.887031 240.780312
v 22.582882 2140.886926 264.634359
v 24.456808 2140.886992 212.005445
v -50.891583 2140.887098 179.503974
v -110.262918 2131.715921 67.586422
v -137.100099 2128.154795 129.318365
v -92.246406 2140.886992 88.496964
v -52.049680 2134.938238 23.866254
v -112.189241 2124.578454 69.974809
v -69.595366 2015.455532 123.327868
v -129.180233 2116.764008 164.965002
v -123.627379 2091.005696 76.578622
v -26.024840 2015.455478 95.064954
v -45.336570 2041.213806 174.607875
v 119.861017 2120.671231 137.280978
v 104.882496 2120.671286 195.572759
v 111.251127 2091.721903 122.368232
v 101.834993 2120.671176 107.469194
v 108.437749 2124.578454 143.876262
v -129.180206 2120.671231 164.965050
v -148.538237 2120.671286 135.922177
v -140.186720 2120.671176 211.538775
v -129.180233 2124.578454 164.965002
v 94.001111 2120.671231 259.416779
v 90.246731 2091.721903 252.913931
v 80.890102 2124.578454 236.707774
v 80.890091 2128.154850 236.707831
v 95.159580 2128.154795 191.761587
v 62.619913 2140.886926 222.231211
v 66.620622 2128.154905 281.653956
v 30.974035 2128.154850 289.573817
v -4.672654 2128.154795 297.493675
v 42.925698 2140.886993 189.173725
v 84.715495 2140.886992 147.772332
v 29.549756 2140.887060 147.363036
v 6.364274 2140.887060 99.071650
v 37.267260 2140.887060 83.903133
v -15.417594 2140.887060 45.161519
v -23.135106 2140.887060 108.621439
v -58.099540 2140.887003 131.310631
v -105.874657 2140.886924 164.687313
v -16.403074 2134.938184 15.946432
v 19.243601 2134.938129 8.026544
v -16.403042 2124.578454 15.946400
v -21.492588 2120.671231 7.131146
v 19.243601 2120.671286 8.026544
v -21.492545 2116.764008 7.131121
v -57.139184 2120.671176 15.050975
v -123.627337 2120.671232 76.578597
v 10.753472 2041.213855 83.158778
v 71.796865 2116.764008 51.248309
v 39.659928 2041.213806 143.365985
v 47.668468 2016.171750 180.656067
v 33.310311 2041.213806 223.958805
v -6.376216 2041.213855 222.339255
v -85.272840 2116.764008 261.931223
v 71.796890 2120.671231 51.248352
v 49.281729 2124.578454 64.247429
v 49.281751 2134.938184 64.247467
v 79.319857 2134.938238 120.468314
v 107.824413 2131.858880 141.115676
v -100.566501 2120.671231 270.760968
v -81.640078 2124.578454 259.833846
v -81.640122 2128.154850 259.833815
v -121.260358 2128.154905 200.611635
v -129.180227 2128.154850 164.965056
vt 0.375000 0.000000
vt 0.625000 0.000000
vt 0.375000 0.250000
vt 0.625000 0.250000
vt 0.375000 0.500000
vt 0.625000 0.500000
vt 0.375000 0.750000
vt 0.625000 0.750000
vt 0.375000 1.000000
vt 0.625000 1.000000
vt 0.875000 0.000000
vt 0.875000 0.250000
vt 0.125000 0.000000
vt 0.125000 0.250000
vt 0.500000 0.125000
vt 0.500000 0.000000
vt 0.500000 1.000000
vt 0.625000 0.125000
vt 0.500000 0.250000
vt 0.375000 0.125000
vt 0.500000 0.375000
vt 0.625000 0.375000
vt 0.750000 0.250000
vt 0.500000 0.500000
vt 0.250000 0.250000
vt 0.375000 0.375000
vt 0.500000 0.625000
vt 0.625000 0.625000
vt 0.875000 0.125000
vt 0.500000 0.750000
vt 0.125000 0.125000
vt 0.375000 0.625000
vt 0.500000 0.875000
vt 0.625000 0.875000
vt 0.750000 0.000000
vt 0.500000 1.000000
vt 0.250000 0.000000
vt 0.375000 0.875000
vt 0.750000 0.125000
vt 0.750000 0.000000
vt 0.875000 0.125000
vt 0.750000 0.250000
vt 0.250000 0.125000
vt 0.250000 0.000000
vt 0.250000 0.250000
vt 0.125000 0.125000
vt 0.437500 0.062500
vt 0.375000 0.062500
vt 0.437500 0.000000
vt 0.437500 1.000000
vt 0.500000 0.062500
vt 0.437500 0.125000
vt 0.435226 0.319419
vt 0.312500 0.250000
vt 0.375000 0.312500
vt 0.437500 0.250000
vt 0.500000 0.312500
vt 0.437500 0.375000
vt 0.440331 0.562359
vt 0.125000 0.187500
vt 0.375000 0.562500
vt 0.437500 0.500000
vt 0.500000 0.562500
vt 0.437500 0.625000
vt 0.447602 0.811286
vt 0.187500 0.000000
vt 0.375000 0.812500
vt 0.437500 0.750000
vt 0.500000 0.812500
vt 0.437500 0.875000
vt 0.687500 0.062500
vt 0.625000 0.062500
vt 0.625000 0.937500
vt 0.687500 0.000000
vt 0.750000 0.062500
vt 0.687500 0.125000
vt 0.187500 0.062500
vt 0.125000 0.062500
vt 0.375000 0.687500
vt 0.187500 0.000000
vt 0.250000 0.062500
vt 0.187500 0.125000
vt 0.562500 0.062500
vt 0.562500 0.000000
vt 0.562500 1.000000
vt 0.562500 0.125000
vt 0.562500 0.187500
vt 0.625000 0.187500
vt 0.562500 0.250000
vt 0.500000 0.187500
vt 0.437500 0.187500
vt 0.375000 0.187500
vt 0.553041 0.312068
vt 0.625000 0.312500
vt 0.687500 0.250000
vt 0.562500 0.375000
vt 0.559102 0.434886
vt 0.625000 0.437500
vt 0.812500 0.250000
vt 0.562500 0.500000
vt 0.500000 0.437500
vt 0.447573 0.438704
vt 0.187500 0.250000
vt 0.375000 0.437500
vt 0.562500 0.562500
vt 0.625000 0.562500
vt 0.875000 0.187500
vt 0.562500 0.625000
vt 0.562500 0.687500
vt 0.625000 0.687500
vt 0.875000 0.062500
vt 0.562500 0.750000
vt 0.500000 0.687500
vt 0.437500 0.687500
vt 0.375000 0.687500
vt 0.559102 0.815114
vt 0.625000 0.812500
vt 0.812500 0.000000
vt 0.562500 0.875000
vt 0.552905 0.937934
vt 0.625000 0.937500
vt 0.562500 1.000000
vt 0.500000 0.937500
vt 0.435130 0.930655
vt 0.437500 1.000000
vt 0.312500 0.000000
vt 0.375000 0.937500
vt 0.812500 0.062500
vt 0.812500 0.000000
vt 0.875000 0.062500
vt 0.812500 0.125000
vt 0.812500 0.187500
vt 0.875000 0.187500
vt 0.812500 0.250000
vt 0.750000 0.187500
vt 0.692340 0.187946
vt 0.687500 0.250000
vt 0.312500 0.062500
vt 0.312500 0.000000
vt 0.312500 0.125000
vt 0.312500 0.187500
vt 0.312500 0.250000
vt 0.250000 0.187500
vt 0.187500 0.187500
vt 0.187500 0.250000
vt 0.125000 0.187500
vn 0.061226 0.885397 0.460786
vn -0.160234 0.779327 0.605784
vn -0.249095 0.445724 0.859815
vn 0.016916 0.889204 0.457197
vn -0.000001 1.000000 -0.000000
vn -0.182919 0.978704 0.093165
vn -0.158878 0.969463 0.186815
vn 0.000001 1.000000 0.000001
vn -0.599986 0.596318 -0.533313
vn -0.660950 0.733891 -0.156682
vn -0.562664 0.820105 -0.104104
vn -0.440339 0.817415 -0.371394
vn -0.422621 -0.824564 0.376146
vn -0.547998 -0.754705 0.360720
vn -0.708249 -0.651212 0.272592
vn -0.499562 -0.861267 -0.093045
vn 0.481693 0.872604 -0.080831
vn 0.523446 0.840429 0.140297
vn 0.983623 0.044710 0.174607
vn 0.993472 0.026009 0.111071
vn -0.658510 0.741906 0.126252
vn -0.921734 0.311348 -0.231234
vn -0.868667 0.465786 0.168701
vn 0.602009 0.696024 0.391326
vn 0.304111 -0.705216 0.640458
vn 0.693375 -0.622282 0.363314
vn 0.928000 0.313923 0.200671
vn 0.408309 0.905391 0.116410
vn 0.588684 0.786508 0.186700
vn 0.579741 0.793741 0.184055
vn 0.384540 0.831371 0.401187
vn 0.176942 0.971967 0.154825
vn 0.031251 0.989565 0.140658
vn 0.116691 0.842926 0.525222
vn 0.000001 1.000000 0.000001
vn 0.231349 0.970094 0.073448
vn 0.000001 1.000000 0.000001
vn 0.000001 1.000000 0.000001
vn 0.076174 0.995802 -0.050761
vn 0.102087 0.993279 -0.054544
vn 0.000000 1.000000 0.000000
vn -0.000001 1.000000 0.000000
vn -0.064636 0.993629 -0.092320
vn -0.141434 0.986494 -0.082622
vn -0.000001 1.000000 -0.000000
vn -0.277744 0.828238 -0.486703
vn -0.015686 0.997381 -0.070601
vn -0.112565 0.854774 -0.506647
vn -0.176952 0.430015 -0.885311
vn 0.434438 0.641460 -0.632292
vn 0.279785 0.797062 -0.535174
vn -0.149872 0.460719 -0.874801
vn -0.586435 0.199539 -0.785034
vn -0.241081 -0.614893 -0.750857
vn -0.707040 -0.599443 -0.375185
vn -0.760726 0.216054 -0.612059
vn -0.092175 -0.906470 -0.412088
vn 0.243708 -0.616140 -0.748984
vn 0.445753 -0.761590 -0.470409
vn 0.394398 -0.844420 -0.362499
vn 0.632794 -0.631249 -0.448437
vn 0.686484 -0.651840 -0.322249
vn 0.455210 -0.889519 0.039244
vn 0.158151 -0.847244 0.507114
vn -0.091060 -0.707362 0.700961
vn -0.276174 -0.830356 0.483980
vn 0.379152 0.896565 -0.228945
vn 0.548642 -0.680053 -0.486334
vn 0.307673 0.923392 -0.229531
vn 0.510725 0.808963 -0.291100
vn 0.371993 0.747315 -0.550584
vn 0.582113 0.751275 -0.311016
vn 0.519134 0.766705 -0.377707
vn 0.208738 0.977972 0.000251
vn 0.636333 0.751990 -0.172022
vn -0.819152 0.428757 0.380994
vn -0.405754 -0.773847 0.486337
vn -0.617067 0.389221 0.683912
vn -0.259787 0.895813 0.360598
vn -0.132322 0.818954 0.558395
vn -0.374021 0.805048 0.460441
vn -0.541485 0.797116 0.267208
vn -0.146072 0.988742 0.032452
vn -0.576685 0.806857 0.128125
vn -0.249402 -0.683991 0.685532
vn 0.211574 0.957997 0.193591
vn -0.065474 0.971622 0.227297
vn 0.000000 1.000000 0.000000
vn -0.200217 0.979548 -0.019960
vn -0.413492 0.531295 -0.739426
vn -0.837091 -0.543342 0.063701
vn 0.035740 -0.994060 0.102801
vn 0.860629 -0.487127 0.148410
vn 0.430564 0.850494 -0.302116
vn -0.345369 0.927189 0.145052
vn 0.236222 0.968550 0.078161
vn 0.082485 0.991793 -0.097689
vn 0.319554 -0.664292 -0.675723
s 1
g Platform_One2
usemtl StingrayPBS5SG
f 31/52/1 13/20/2 28/48/3 27/47/4
f 36/58/5 17/26/6 33/55/7 32/53/8
f 41/64/9 21/32/10 38/61/11 37/59/12
f 46/70/13 24/38/14 43/67/15 42/65/16
f 51/76/17 11/18/18 48/72/19 47/71/20
f 55/82/21 21/46/10 53/78/22 52/77/23
f 30/51/24 10/16/25 57/84/26 56/83/27
f 58/86/28 11/18/18 60/88/29 59/87/30
f 62/90/31 12/19/32 34/56/33 63/91/34
f 35/57/35 12/19/32 61/89/36 65/93/37
f 67/96/38 15/22/39 69/98/40 68/97/41
f 71/101/42 16/24/43 39/62/44 72/102/45
f 40/63/46 16/24/43 70/100/47 74/105/48
f 76/108/49 19/28/50 78/110/51 77/109/52
f 80/113/53 20/30/54 44/68/55 81/114/56
f 45/69/57 20/30/54 79/112/58 82/116/59
f 84/119/60 23/34/61 49/121/62 85/120/63
f 86/123/64 10/36/25 29/125/65 87/124/66
f 50/75/67 23/40/61 83/129/68 89/128/69
f 90/131/70 19/41/50 75/133/71 91/132/72
f 92/135/73 15/42/39 66/137/74 93/136/75
f 54/81/76 24/44/14 88/139/77 94/138/78
f 95/140/79 13/20/2 64/92/80 96/141/81
f 97/143/82 17/45/6 73/145/83 98/144/84
f 28/48/3 1/1/85 29/49/65 27/47/4
f 29/49/65 10/16/25 30/51/24 27/47/4
f 30/51/24 9/15/86 31/52/1 27/47/4
f 33/55/7 3/3/87 34/56/33 32/53/8
f 34/56/33 12/19/32 35/57/35 32/53/8
f 35/57/35 14/21/88 36/58/5 32/53/8
f 38/61/11 5/5/89 39/62/44 37/59/12
f 39/62/44 16/24/43 40/63/46 37/59/12
f 40/63/46 18/27/90 41/64/9 37/59/12
f 43/67/15 7/7/91 44/68/55 42/65/16
f 44/68/55 20/30/54 45/69/57 42/65/16
f 45/69/57 22/33/92 46/70/13 42/65/16
f 48/72/19 2/2/93 49/74/62 47/71/20
f 49/74/62 23/40/61 50/75/67 47/71/20
f 50/75/67 25/39/94 51/76/17 47/71/20
f 53/78/22 7/13/91 43/80/15 52/77/23
f 43/80/15 24/44/14 54/81/76 52/77/23
f 54/81/76 26/43/95 55/82/21 52/77/23
f 57/84/26 2/2/93 48/72/19 56/83/27
f 48/72/19 11/18/18 58/86/28 56/83/27
f 58/86/28 9/15/86 30/51/24 56/83/27
f 60/88/29 4/4/96 61/89/36 59/87/30
f 61/89/36 12/19/32 62/90/31 59/87/30
f 62/90/31 9/15/86 58/86/28 59/87/30
f 34/56/33 3/3/87 64/92/80 63/91/34
f 64/92/80 13/20/2 31/52/1 63/91/34
f 31/52/1 9/15/86 62/90/31 63/91/34
f 61/89/36 4/4/96 66/94/74 65/93/37
f 66/94/74 15/22/39 67/96/38 65/93/37
f 67/96/38 14/21/88 35/57/35 65/93/37
f 69/98/40 6/6/97 70/100/47 68/97/41
f 70/100/47 16/24/43 71/101/42 68/97/41
f 71/101/42 14/21/88 67/96/38 68/97/41
f 39/62/44 5/5/89 73/104/83 72/102/45
f 73/104/83 17/26/6 36/58/5 72/102/45
f 36/58/5 14/21/88 71/101/42 72/102/45
f 70/100/47 6/6/97 75/106/71 74/105/48
f 75/106/71 19/28/50 76/108/49 74/105/48
f 76/108/49 18/27/90 40/63/46 74/105/48
f 78/110/51 8/8/98 79/112/58 77/109/52
f 79/112/58 20/30/54 80/113/53 77/109/52
f 80/113/53 18/27/90 76/108/49 77/109/52
f 44/68/55 7/7/91 53/115/22 81/114/56
f 53/115/22 21/32/10 41/64/9 81/114/56
f 41/64/9 18/27/90 80/113/53 81/114/56
f 79/112/58 8/8/98 83/117/68 82/116/59
f 83/117/68 23/34/61 84/119/60 82/116/59
f 84/119/60 22/33/92 45/69/57 82/116/59
f 49/121/62 2/10/93 57/122/26 85/120/63
f 57/122/26 10/36/25 86/123/64 85/120/63
f 86/123/64 22/33/92 84/119/60 85/120/63
f 29/125/65 1/9/85 88/127/77 87/124/66
f 88/127/77 24/38/14 46/70/13 87/124/66
f 46/70/13 22/33/92 86/123/64 87/124/66
f 83/129/68 8/11/98 78/130/51 89/128/69
f 78/130/51 19/41/50 90/131/70 89/128/69
f 90/131/70 25/39/94 50/75/67 89/128/69
f 75/133/71 6/12/97 69/134/40 91/132/72
f 69/134/40 15/42/39 92/135/73 91/132/72
f 92/135/73 25/39/94 90/131/70 91/132/72
f 66/137/74 4/4/96 60/88/29 93/136/75
f 60/88/29 11/18/18 51/76/17 93/136/75
f 51/76/17 25/39/94 92/135/73 93/136/75
f 88/139/77 1/1/85 28/48/3 94/138/78
f 28/48/3 13/20/2 95/140/79 94/138/78
f 95/140/79 26/43/95 54/81/76 94/138/78
f 64/92/80 3/3/87 33/142/7 96/141/81
f 33/142/7 17/45/6 97/143/82 96/141/81
f 97/143/82 26/43/95 95/140/79 96/141/81
f 73/145/83 5/14/89 38/146/11 98/144/84
f 38/146/11 21/46/10 55/82/21 98/144/84
f 55/82/21 26/43/95 97/143/82 98/144/84
