# This file uses meters as units for non-parametric coordinates.

mtllib Leaf3.mtl
g default
v -311.799850 2525.764523 -105.052766
v -205.863153 2526.047278 -105.052766
v -160.140208 2534.926752 -105.052766
v -297.608884 2527.103954 -90.963372
v -204.631020 2529.639129 -92.284531
v -161.921546 2533.786155 -101.583767
v -297.608884 2527.103954 -119.142160
v -204.631020 2529.639129 -117.821001
v -161.921546 2533.786155 -108.521765
v -146.320938 2536.348379 -105.052766
v -147.684578 2536.348379 -108.409823
v -147.684578 2536.348379 -101.695709
v -144.087924 2536.666417 -105.052766
v -145.451563 2536.666417 -109.571298
v -145.451563 2536.666417 -100.534233
v -274.364414 2527.737747 -120.959811
v -285.315676 2523.767393 -105.052766
v -274.364414 2527.737747 -89.145721
v -251.119974 2528.371540 -119.118861
v -258.831527 2524.527354 -105.052766
v -251.119974 2528.371540 -90.986671
v -227.875497 2529.005334 -117.848435
v -232.347340 2525.287316 -105.052766
v -227.875497 2529.005334 -92.257096
vt 0.000000 0.500000
vt 0.500000 0.500000
vt 1.000000 0.500000
vt 0.000000 0.450000
vt 0.500000 0.450000
vt 1.000000 0.450000
vt 0.000000 0.550000
vt 0.500000 0.550000
vt 1.000000 0.550000
vt 0.000000 0.000000
vt 1.000000 0.000000
vt 1.000000 1.000000
vt 0.000000 1.000000
vt 0.000000 0.000000
vt 1.000000 0.000000
vt 1.000000 1.000000
vt 0.000000 1.000000
vt 0.000000 0.000000
vt 1.000000 0.000000
vt 1.000000 1.000000
vt 0.000000 1.000000
vt 0.000000 0.000000
vt 1.000000 0.000000
vt 1.000000 1.000000
vt 0.000000 1.000000
vt 0.125000 0.550000
vt 0.125000 0.500000
vt 0.125000 0.450000
vt 0.250000 0.550000
vt 0.250000 0.500000
vt 0.250000 0.450000
vt 0.375000 0.550000
vt 0.375000 0.500000
vt 0.375000 0.450000
vn -0.032278 0.999479 0.000000
vn -0.029851 0.964067 -0.263977
vn -0.097534 0.973154 -0.208466
vn -0.094227 0.995551 0.000000
vn -0.158814 0.977606 -0.138072
vn -0.157240 0.987560 0.000000
vn -0.029851 0.964067 0.263977
vn -0.097534 0.973154 0.208466
vn -0.158814 0.977606 0.138072
vn -0.137557 0.990494 0.000000
vn -0.138207 0.987215 -0.079411
vn -0.138207 0.987215 0.079411
vn -0.129557 0.991572 0.000000
vn -0.129427 0.990576 0.044820
vn -0.129427 0.990576 -0.044820
vn 0.034935 0.999390 0.000000
vn 0.011653 0.999932 -0.000000
vn -0.015610 0.974721 0.222880
vn 0.034215 0.978800 0.201940
vn 0.034215 0.978800 -0.201940
vn -0.015610 0.974721 -0.222880
vn -0.036170 0.999346 -0.000000
vn -0.034485 0.968473 0.246718
vn -0.034485 0.968473 -0.246718
s 1
g leaf_Three
usemtl StingrayPBS15SG
f 23/33/1 24/34/2 5/5/3 2/2/4
f 5/5/3 6/6/5 3/3/6 2/2/4
f 22/32/7 23/33/1 2/2/4 8/8/8
f 2/2/4 3/3/6 9/9/9 8/8/8
f 9/10/9 3/11/6 10/12/10 11/13/11
f 3/14/6 6/15/5 12/16/12 10/17/10
f 11/18/11 10/19/10 13/20/13 14/21/14
f 10/22/10 12/23/12 15/24/15 13/25/13
f 1/1/16 17/27/17 16/26/18 7/7/19
f 4/4/20 18/28/21 17/27/17 1/1/16
f 16/26/18 17/27/17 20/30/22 19/29/23
f 17/27/17 18/28/21 21/31/24 20/30/22
f 19/29/23 20/30/22 23/33/1 22/32/7
f 20/30/22 21/31/24 24/34/2 23/33/1
