# This file uses meters as units for non-parametric coordinates.

mtllib crate.mtl
g default
v -35.826457 1009.893041 1484.815575
v 37.544610 1009.893041 1484.815575
v -35.826457 1083.264107 1484.815575
v 37.544610 1083.264107 1484.815575
v -35.826457 1083.264107 1411.444513
v 37.544610 1083.264107 1411.444513
v -35.826457 1009.893041 1411.444513
v 37.544610 1009.893041 1411.444513
v -35.826457 1016.566035 1418.117542
v -35.826457 1016.566035 1478.142546
v -35.826457 1076.591113 1478.142546
v -35.826457 1076.591113 1418.117542
v -35.826457 1083.264107 1440.792907
v 37.544610 1083.264107 1440.792907
v 37.544610 1009.893041 1440.792907
v -35.826457 1009.893041 1440.792907
v -35.826457 1016.566035 1442.127555
v -35.826457 1076.591113 1442.127555
v -35.826457 1083.264107 1453.999722
v 37.544610 1083.264107 1453.999722
v 37.544610 1009.893041 1453.999722
v -35.826457 1009.893041 1453.999722
v -35.826457 1016.566035 1452.932017
v -35.826457 1076.591113 1452.932017
v -35.826457 1039.241474 1484.815575
v 37.544610 1039.241474 1484.815575
v 37.544610 1039.241474 1453.999722
v 37.544610 1039.241474 1440.792907
v 37.544610 1039.241474 1411.444513
v -35.826457 1039.241474 1411.444513
v -35.826457 1040.576052 1418.117542
v -35.826457 1040.576052 1442.127555
v -35.826457 1040.576052 1452.932017
v -35.826457 1040.576052 1478.142546
v -35.826457 1052.448254 1411.444513
v 37.544610 1052.448254 1411.444513
v 37.544610 1052.448254 1440.792907
v 37.544610 1052.448254 1453.999722
v 37.544610 1052.448254 1484.815575
v -35.826457 1052.448254 1484.815575
v -35.826457 1051.380584 1478.142546
v -35.826457 1051.380584 1452.932017
v -35.826457 1051.380584 1442.127555
v -35.826457 1051.380584 1418.117542
v -33.692749 1016.566035 1418.117542
v -33.692749 1016.566035 1442.127555
v -33.692749 1040.576052 1442.127555
v -33.692749 1040.576052 1418.117542
v -33.692749 1040.576052 1452.932017
v -33.692749 1040.576052 1478.142546
v -33.692749 1016.566035 1452.932017
v -33.692749 1016.566035 1478.142546
v -33.692749 1051.380584 1452.932017
v -33.692749 1076.591113 1452.932017
v -33.692749 1051.380584 1478.142546
v -33.692749 1076.591113 1478.142546
v -33.692749 1051.380584 1442.127555
v -33.692749 1051.380584 1418.117542
v -33.692749 1076.591113 1442.127555
v -33.692749 1076.591113 1418.117542
v -37.568351 1051.380584 1452.932017
v -37.568351 1051.380584 1442.127555
v -37.568351 1040.576052 1442.127555
v -37.568351 1040.576052 1452.932017
v 37.544610 1009.893041 1447.396314
v 37.544610 1039.241474 1447.396314
v 37.544610 1052.448254 1447.396314
v 37.544610 1083.264107 1447.396314
v -35.826457 1083.264107 1447.396314
v -35.826457 1076.591113 1447.529786
v -35.826457 1051.380584 1447.529786
v -37.568351 1051.380584 1447.529786
v -37.568351 1040.576052 1447.529786
v -35.826457 1040.576052 1447.529786
v -35.826457 1016.566035 1447.529786
v -35.826457 1009.893041 1447.396314
v 0.859077 1009.893041 1484.815575
v 0.859077 1009.893041 1453.999722
v 0.859077 1009.893041 1447.396314
v 0.859077 1009.893041 1440.792907
v 0.859077 1009.893041 1411.444513
v 0.859077 1039.241474 1411.444513
v 0.859077 1052.448254 1411.444513
v 0.859077 1083.264107 1411.444513
v 0.859077 1083.264107 1440.792907
v 0.859077 1083.264107 1447.396314
v 0.859077 1083.264107 1453.999722
v 0.859077 1083.264107 1484.815575
v 0.859077 1052.448254 1484.815575
v 0.859077 1039.241474 1484.815575
vt 0.269394 0.602810
vt 0.357430 0.603721
vt 0.269709 0.692578
vt 0.357628 0.691843
vt 0.269842 0.780009
vt 0.357666 0.779890
vt 0.269925 0.867799
vt 0.357736 0.867719
vt 0.270002 0.955607
vt 0.357812 0.955530
vt 0.445247 0.603613
vt 0.445469 0.691462
vt 0.177637 0.602326
vt 0.177810 0.693276
vt 0.185879 0.610319
vt 0.261367 0.610620
vt 0.261623 0.684829
vt 0.185974 0.685208
vt 0.214585 0.693364
vt 0.269802 0.744931
vt 0.357644 0.744728
vt 0.410342 0.691566
vt 0.357767 0.902844
vt 0.410123 0.603692
vt 0.214650 0.602309
vt 0.269956 0.902922
vt 0.216384 0.610293
vt 0.216493 0.685447
vt 0.230863 0.693378
vt 0.269779 0.729181
vt 0.357635 0.728885
vt 0.394531 0.691630
vt 0.357780 0.918650
vt 0.394316 0.603715
vt 0.230760 0.602242
vt 0.269970 0.918727
vt 0.229550 0.610200
vt 0.229606 0.685402
vt 0.269906 0.638737
vt 0.357542 0.638925
vt 0.394413 0.638869
vt 0.410216 0.638836
vt 0.357707 0.832593
vt 0.445339 0.638750
vt 0.178286 0.639008
vt 0.269893 0.832677
vt 0.186270 0.640587
vt 0.216836 0.640622
vt 0.230035 0.640736
vt 0.262018 0.640560
vt 0.178056 0.654883
vt 0.269879 0.816875
vt 0.357694 0.816784
vt 0.445379 0.654565
vt 0.410256 0.654656
vt 0.394453 0.654699
vt 0.357585 0.654800
vt 0.270024 0.654922
vt 0.262117 0.653393
vt 0.230206 0.653812
vt 0.216557 0.653685
vt 0.186001 0.653451
vt 0.187639 0.611878
vt 0.214856 0.612044
vt 0.215071 0.639067
vt 0.187869 0.638882
vt 0.260255 0.639022
vt 0.231561 0.638981
vt 0.231293 0.611805
vt 0.259827 0.612347
vt 0.231207 0.683653
vt 0.231940 0.655351
vt 0.260485 0.655097
vt 0.259904 0.683285
vt 0.187754 0.655007
vt 0.214982 0.655410
vt 0.214769 0.683853
vt 0.187575 0.683487
vt 0.228807 0.652695
vt 0.217837 0.652653
vt 0.218276 0.641762
vt 0.228747 0.641796
vt 0.357773 0.910747
vt 0.402220 0.603705
vt 0.402315 0.638853
vt 0.402354 0.654678
vt 0.357640 0.736808
vt 0.402437 0.691596
vt 0.222717 0.693371
vt 0.269791 0.737053
vt 0.222986 0.685427
vt 0.223409 0.654879
vt 0.223362 0.653119
vt 0.223498 0.641363
vt 0.223462 0.639543
vt 0.222957 0.610247
vt 0.222667 0.602330
vt 0.269963 0.910825
vt 0.313463 0.603499
vt 0.313907 0.955569
vt 0.313875 0.918689
vt 0.313868 0.910786
vt 0.313861 0.902883
vt 0.313831 0.867759
vt 0.313800 0.832635
vt 0.313786 0.816830
vt 0.313755 0.779949
vt 0.313726 0.744821
vt 0.313721 0.736915
vt 0.313714 0.729007
vt 0.313697 0.692069
vt 0.313726 0.654900
vt 0.313714 0.638906
vn 0.000000 0.000000 1.000000
vn 0.000000 0.000000 1.000000
vn 0.000000 0.000000 1.000000
vn 0.000000 0.000000 1.000000
vn 0.000000 1.000000 0.000000
vn 0.000000 1.000000 0.000000
vn 0.000000 1.000000 0.000000
vn 0.000000 1.000000 0.000000
vn 0.000000 0.000000 -1.000000
vn 0.000000 0.000000 -1.000000
vn 0.000000 0.000000 -1.000000
vn 0.000000 0.000000 -1.000000
vn 0.000000 -1.000000 0.000000
vn 0.000000 -1.000000 0.000000
vn 0.000000 -1.000000 0.000000
vn 0.000000 -1.000000 0.000000
vn 1.000000 0.000000 0.000000
vn 1.000000 0.000000 0.000000
vn 1.000000 0.000000 0.000000
vn 1.000000 0.000000 0.000000
vn -1.000000 0.000000 0.000000
vn -1.000000 0.000000 0.000000
vn -1.000000 0.000000 0.000000
vn -1.000000 0.000000 0.000000
vn -1.000000 0.000000 0.000000
vn -1.000000 0.000000 0.000000
vn -1.000000 0.000000 0.000000
vn -1.000000 0.000000 0.000000
vn -1.000000 0.000000 0.000000
vn -1.000000 0.000000 0.000000
vn -1.000000 0.000000 0.000000
vn -1.000000 0.000000 0.000000
vn -1.000000 0.000000 0.000000
vn -1.000000 0.000000 0.000000
vn -1.000000 0.000000 0.000000
vn -1.000000 0.000000 0.000000
vn -1.000000 0.000000 0.000000
vn -1.000000 0.000000 0.000000
vn -1.000000 0.000000 0.000000
vn -1.000000 0.000000 0.000000
vn 0.000000 1.000000 0.000000
vn 0.000000 1.000000 0.000000
vn 0.000000 1.000000 0.000000
vn 0.000000 1.000000 0.000000
vn 1.000000 0.000000 0.000000
vn 1.000000 0.000000 0.000000
vn 1.000000 0.000000 0.000000
vn 1.000000 0.000000 0.000000
vn 0.000000 -1.000000 0.000000
vn 0.000000 -1.000000 0.000000
vn 0.000000 -1.000000 0.000000
vn 0.000000 -1.000000 0.000000
vn -1.000000 0.000000 0.000000
vn -1.000000 0.000000 0.000000
vn -1.000000 0.000000 0.000000
vn -1.000000 0.000000 0.000000
vn -1.000000 0.000000 0.000000
vn -1.000000 0.000000 0.000000
vn -1.000000 0.000000 0.000000
vn -1.000000 0.000000 0.000000
vn -1.000000 0.000000 0.000000
vn -1.000000 0.000000 0.000000
vn -1.000000 0.000000 0.000000
vn -1.000000 0.000000 0.000000
vn 0.000000 1.000000 0.000000
vn 0.000000 1.000000 0.000000
vn 1.000000 0.000000 0.000000
vn 1.000000 0.000000 0.000000
vn 0.000000 -1.000000 0.000000
vn 0.000000 -1.000000 0.000000
vn -1.000000 0.000000 0.000000
vn -1.000000 0.000000 0.000000
vn -1.000000 0.000000 0.000000
vn -1.000000 0.000000 0.000000
vn -1.000000 0.000000 0.000000
vn -1.000000 0.000000 0.000000
vn -1.000000 0.000000 0.000000
vn -1.000000 0.000000 0.000000
vn 0.000000 0.000000 1.000000
vn 0.000000 0.000000 1.000000
vn 1.000000 0.000000 0.000000
vn 1.000000 0.000000 0.000000
vn 1.000000 0.000000 0.000000
vn 1.000000 0.000000 0.000000
vn 1.000000 0.000000 0.000000
vn 0.000000 0.000000 -1.000000
vn 0.000000 0.000000 -1.000000
vn -1.000000 0.000000 0.000000
vn -1.000000 0.000000 0.000000
vn -1.000000 0.000000 0.000000
vn -1.000000 0.000000 0.000000
vn -1.000000 0.000000 0.000000
vn -1.000000 0.000000 0.000000
vn -1.000000 0.000000 0.000000
vn -1.000000 0.000000 0.000000
vn -1.000000 0.000000 0.000000
vn -1.000000 0.000000 0.000000
vn -1.000000 0.000000 0.000000
vn -1.000000 0.000000 0.000000
vn -1.000000 0.000000 0.000000
vn -1.000000 0.000000 0.000000
vn -1.000000 0.000000 0.000000
vn -1.000000 0.000000 0.000000
vn 0.000000 0.000000 -1.000000
vn 0.000000 0.000000 -1.000000
vn 1.000000 0.000000 0.000000
vn 1.000000 0.000000 0.000000
vn 1.000000 0.000000 0.000000
vn 1.000000 0.000000 0.000000
vn 1.000000 0.000000 0.000000
vn 0.000000 0.000000 1.000000
vn 0.000000 0.000000 1.000000
vn -1.000000 0.000000 0.000000
vn -1.000000 0.000000 0.000000
vn -1.000000 0.000000 0.000000
vn -1.000000 0.000000 0.000000
vn -1.000000 0.000000 0.000000
vn -1.000000 0.000000 0.000000
vn -1.000000 0.000000 0.000000
vn -1.000000 0.000000 0.000000
vn -1.000000 0.000000 0.000000
vn -1.000000 0.000000 0.000000
vn -1.000000 0.000000 0.000000
vn -1.000000 0.000000 0.000000
vn -1.000000 0.000000 0.000000
vn -1.000000 0.000000 0.000000
vn -1.000000 0.000000 0.000000
vn -1.000000 0.000000 0.000000
vn 0.000000 1.000000 0.000000
vn 0.000000 1.000000 0.000000
vn 0.000000 1.000000 0.000000
vn 0.000000 1.000000 0.000000
vn 0.000000 0.000000 -1.000000
vn 0.000000 0.000000 -1.000000
vn 0.000000 0.000000 -1.000000
vn 0.000000 0.000000 -1.000000
vn 0.000000 -1.000000 0.000000
vn 0.000000 -1.000000 0.000000
vn 0.000000 -1.000000 0.000000
vn 0.000000 -1.000000 0.000000
vn 0.000000 0.000000 1.000000
vn 0.000000 0.000000 1.000000
vn 0.000000 0.000000 1.000000
vn 0.000000 0.000000 1.000000
vn 0.000000 -1.000000 0.000000
vn 0.000000 -1.000000 0.000000
vn 0.000000 -1.000000 0.000000
vn 0.000000 -1.000000 0.000000
vn 0.000000 0.000000 1.000000
vn 0.000000 0.000000 1.000000
vn 0.000000 0.000000 1.000000
vn 0.000000 0.000000 1.000000
vn 0.000000 1.000000 0.000000
vn 0.000000 1.000000 0.000000
vn 0.000000 1.000000 0.000000
vn 0.000000 1.000000 0.000000
vn 0.000000 0.000000 -1.000000
vn 0.000000 0.000000 -1.000000
vn 0.000000 0.000000 -1.000000
vn 0.000000 0.000000 -1.000000
vn 0.000000 0.000000 1.000000
vn 0.000000 0.000000 1.000000
vn 0.000000 0.000000 1.000000
vn 0.000000 0.000000 1.000000
vn 0.000000 1.000000 0.000000
vn 0.000000 1.000000 0.000000
vn 0.000000 1.000000 0.000000
vn 0.000000 1.000000 0.000000
vn 0.000000 0.000000 -1.000000
vn 0.000000 0.000000 -1.000000
vn 0.000000 0.000000 -1.000000
vn 0.000000 0.000000 -1.000000
vn 0.000000 -1.000000 0.000000
vn 0.000000 -1.000000 0.000000
vn 0.000000 -1.000000 0.000000
vn 0.000000 -1.000000 0.000000
vn 0.000000 1.000000 0.000000
vn 0.000000 1.000000 0.000000
vn 0.000000 1.000000 0.000000
vn 0.000000 1.000000 0.000000
vn 0.000000 0.000000 -1.000000
vn 0.000000 0.000000 -1.000000
vn 0.000000 0.000000 -1.000000
vn 0.000000 0.000000 -1.000000
vn 0.000000 -1.000000 0.000000
vn 0.000000 -1.000000 0.000000
vn 0.000000 -1.000000 0.000000
vn 0.000000 -1.000000 0.000000
vn 0.000000 0.000000 1.000000
vn 0.000000 0.000000 1.000000
vn 0.000000 0.000000 1.000000
vn 0.000000 0.000000 1.000000
vn 0.000000 1.000000 0.000000
vn 0.000000 1.000000 0.000000
vn 0.000000 1.000000 0.000000
vn 0.000000 1.000000 0.000000
vn 0.000000 0.000000 -1.000000
vn 0.000000 0.000000 -1.000000
vn 0.000000 0.000000 -1.000000
vn 0.000000 0.000000 -1.000000
vn 0.000000 -1.000000 0.000000
vn 0.000000 -1.000000 0.000000
vn 0.000000 -1.000000 0.000000
vn 0.000000 -1.000000 0.000000
vn 0.000000 0.000000 1.000000
vn 0.000000 0.000000 1.000000
vn 0.000000 0.000000 1.000000
vn 0.000000 0.000000 1.000000
vn -1.000000 0.000000 0.000000
vn -1.000000 0.000000 0.000000
vn 0.000000 1.000000 0.000000
vn 0.000000 1.000000 0.000000
vn -1.000000 0.000000 0.000000
vn -1.000000 0.000000 0.000000
vn 0.000000 -1.000000 0.000000
vn 0.000000 -1.000000 0.000000
vn -1.000000 0.000000 0.000000
vn -1.000000 0.000000 0.000000
vn 0.000000 -1.000000 0.000000
vn 0.000000 -1.000000 0.000000
vn 0.000000 -1.000000 0.000000
vn 0.000000 -1.000000 0.000000
vn 0.000000 -1.000000 0.000000
vn 0.000000 0.000000 -1.000000
vn 0.000000 0.000000 -1.000000
vn 0.000000 0.000000 -1.000000
vn 0.000000 0.000000 -1.000000
vn 0.000000 1.000000 0.000000
vn 0.000000 1.000000 0.000000
vn 0.000000 1.000000 0.000000
vn 0.000000 1.000000 0.000000
vn 0.000000 1.000000 0.000000
vn 0.000000 0.000000 1.000000
vn 0.000000 0.000000 1.000000
vn 0.000000 0.000000 1.000000
vn 0.000000 0.000000 1.000000
s 1
g crate
usemtl StingrayPBS41SG
f 89/112/1 90/113/2 26/40/3 39/57/4
s 2
f 84/107/5 85/108/6 14/21/7 6/6/8
s 3
f 82/105/9 83/106/10 36/53/11 29/43/12
s 4
f 80/103/13 81/104/14 8/8/15 15/23/16
s 5
f 36/54/17 37/55/18 28/42/19 29/44/20
s off
f 31/47/21 32/48/22 43/61/23 44/62/24
s 6
f 7/13/25 16/25/26 17/27/27 9/15/28
s 7
f 34/50/29 25/39/30 40/58/31 41/59/32
s 8
f 18/28/33 13/19/34 5/14/35 12/18/36
s 9
f 44/62/37 35/51/38 30/45/39 31/47/40
s 2
f 86/109/41 87/110/42 20/31/43 68/87/44
s 5
f 66/85/45 67/86/46 38/56/47 27/41/48
s 4
f 78/101/49 79/102/50 65/83/51 21/33/52
s 6
f 75/96/53 76/97/54 22/35/55 23/37/56
s 12
f 61/79/57 72/93/58 73/94/59 64/82/60
s 8
f 24/38/61 19/29/62 69/89/63 70/91/64
s 2
f 87/110/42 88/111/65 4/4/66 20/31/43
s 5
f 26/40/67 27/41/48 38/56/47 39/57/68
s 4
f 77/100/69 78/101/49 21/33/52 2/10/70
s 6
f 23/37/56 22/35/55 1/1/71 10/16/72
s off
f 41/59/73 42/60/74 33/49/75 34/50/76
s 8
f 3/3/77 19/29/62 24/38/61 11/17/78
s 1
f 90/113/2 77/99/79 2/2/80 26/40/3
s 5
f 2/2/81 21/34/82 27/41/48 26/40/67
f 65/84/83 66/85/45 27/41/48 21/34/82
f 29/44/20 28/42/19 15/24/84 8/11/85
s 3
f 81/104/86 82/105/9 29/43/12 8/8/87
s 9
f 31/47/40 30/45/39 7/13/88 9/15/89
s off
f 45/63/90 46/64/91 47/65/92 48/66/93
s 14
f 33/49/94 74/95/95 75/96/96 23/37/97
s off
f 50/67/98 49/68/99 51/69/100 52/70/101
s 7
f 1/1/102 25/39/30 34/50/29 10/16/103
s 3
f 83/106/10 84/107/104 6/6/105 36/53/11
s 5
f 14/22/106 37/55/18 36/54/17 6/12/107
f 20/32/108 38/56/47 67/86/46 68/88/109
f 39/57/68 38/56/47 20/32/108 4/4/110
s 1
f 88/111/111 89/112/1 39/57/4 4/4/112
s 7
f 41/59/32 40/58/31 3/3/113 11/17/114
s off
f 54/71/115 53/72/116 55/73/117 56/74/118
s 15
f 70/91/119 71/92/120 42/60/121 24/38/122
s off
f 58/75/123 57/76/124 59/77/125 60/78/126
s 9
f 5/14/127 35/51/38 44/62/37 12/18/128
s off
f 9/15/129 17/27/130 46/64/131 45/63/132
f 17/27/133 32/48/134 47/65/135 46/64/136
f 32/48/137 31/47/138 48/66/139 47/65/140
f 31/47/141 9/15/142 45/63/143 48/66/144
f 34/50/145 33/49/146 49/68/147 50/67/148
f 33/49/149 23/37/150 51/69/151 49/68/152
f 23/37/153 10/16/154 52/70/155 51/69/156
f 10/16/157 34/50/158 50/67/159 52/70/160
f 24/38/161 42/60/162 53/72/163 54/71/164
f 42/60/165 41/59/166 55/73/167 53/72/168
f 41/59/169 11/17/170 56/74/171 55/73/172
f 11/17/173 24/38/174 54/71/175 56/74/176
f 44/62/177 43/61/178 57/76/179 58/75/180
f 43/61/181 18/28/182 59/77/183 57/76/184
f 18/28/185 12/18/186 60/78/187 59/77/188
f 12/18/189 44/62/190 58/75/191 60/78/192
s 16
f 42/60/193 71/92/194 72/93/195 61/79/196
s off
f 43/61/197 32/48/198 63/81/199 62/80/200
s 17
f 73/94/201 74/95/202 33/49/203 64/82/204
s off
f 33/49/205 42/60/206 61/79/207 64/82/208
s 5
f 28/42/19 66/85/45 65/84/83 15/24/84
f 37/55/18 67/86/46 66/85/45 28/42/19
f 68/88/109 67/86/46 37/55/18 14/22/106
s 2
f 85/108/6 86/109/41 68/87/44 14/21/7
s 8
f 70/91/64 69/89/63 13/19/34 18/28/33
s 15
f 18/28/209 43/61/210 71/92/120 70/91/119
s 16
f 72/93/195 71/92/194 43/61/211 62/80/212
s 12
f 73/94/59 72/93/58 62/80/213 63/81/214
s 17
f 32/48/215 74/95/202 73/94/201 63/81/216
s 14
f 75/96/96 74/95/95 32/48/217 17/27/218
s 6
f 17/27/27 16/25/26 76/97/54 75/96/53
s 4
f 79/102/50 80/103/13 15/23/16 65/83/51
f 22/36/219 78/101/49 77/100/69 1/9/220
f 76/98/221 79/102/50 78/101/49 22/36/219
f 16/26/222 80/103/13 79/102/50 76/98/221
f 7/7/223 81/104/14 80/103/13 16/26/222
s 3
f 30/46/224 82/105/9 81/104/86 7/7/225
f 35/52/226 83/106/10 82/105/9 30/46/224
f 5/5/227 84/107/104 83/106/10 35/52/226
s 2
f 13/20/228 85/108/6 84/107/5 5/5/229
f 69/90/230 86/109/41 85/108/6 13/20/228
f 19/30/231 87/110/42 86/109/41 69/90/230
f 3/3/232 88/111/65 87/110/42 19/30/231
s 1
f 40/58/233 89/112/1 88/111/111 3/3/234
f 25/39/235 90/113/2 89/112/1 40/58/233
f 1/1/236 77/99/79 90/113/2 25/39/235
