# This file uses meters as units for non-parametric coordinates.

mtllib rope_one.mtl
g default
v -10.793608 1972.618713 1158.869547
v 10.087679 1972.618713 1158.869547
v -10.793608 1972.618713 1150.649496
v 10.087679 1972.618713 1150.649496
v 10.087679 1972.618713 879.388339
v -10.793608 1972.618713 879.388339
v 10.087679 1972.618713 887.608390
v -10.793608 1972.618713 887.608390
v -10.793608 2105.727519 1158.869547
v 10.087679 2105.727519 1158.869547
v 10.087679 2105.727519 1150.649496
v -10.793608 2105.727519 1150.649496
v 10.087679 2105.727519 887.608390
v -10.793608 2105.727519 887.608390
v 10.087679 2105.727519 879.388339
v -10.793608 2105.727519 879.388339
v -10.793608 2089.328534 1158.869547
v 10.087679 2089.328534 1158.869547
v 10.087679 2089.328534 1150.649496
v -10.793608 2089.328534 1150.649496
v -10.793608 2097.315040 1158.869547
v 10.087679 2097.315040 1158.869547
v 10.087679 2097.315040 1150.649496
v -10.793608 2097.315040 1150.649496
v 10.087679 2089.328534 887.608390
v 10.087679 2089.328534 879.388339
v -10.793608 2089.328534 879.388339
v -10.793608 2089.328534 887.608390
v 10.087679 2097.315040 887.608390
v 10.087679 2097.315040 879.388339
v -10.793608 2097.315040 879.388339
v -10.793608 2097.315040 887.608390
v -2.466150 1972.618713 879.388339
v -2.466150 2089.328534 879.388339
v -2.466150 2097.315040 879.388339
v -2.466150 2105.727519 879.388339
v -2.466150 2105.727519 887.608390
v -2.466150 2097.315040 887.608390
v -2.466150 2089.328490 887.608390
v -2.466150 1972.618713 887.608390
v -2.466150 1972.618668 1150.649496
v -2.466150 2089.328534 1150.649496
v -2.466150 2097.315040 1150.649496
v -2.466150 2105.727475 1150.649496
v -2.466150 2105.727475 1158.869547
v -2.466150 2097.315040 1158.869547
v -2.466150 2089.328490 1158.869547
v -2.466150 1972.618668 1158.869547
v 2.336533 1972.618713 879.388339
v 2.336533 2089.328490 879.388339
v 2.336533 2097.315040 879.388339
v 2.336533 2105.727519 879.388339
v 2.336533 2105.727519 887.608390
v 2.336533 2097.315040 887.608390
v 2.336533 2089.328490 887.608390
v 2.336533 1972.618713 887.608390
v 2.336533 1972.618668 1150.649496
v 2.336533 2089.328490 1150.649496
v 2.336533 2097.315040 1150.649496
v 2.336533 2105.727475 1150.649496
v 2.336533 2105.727475 1158.869547
v 2.336533 2097.315040 1158.869547
v 2.336533 2089.328490 1158.869547
v 2.336533 1972.618668 1158.869547
v 2.336533 2093.080687 911.720546
v 2.336533 2085.094137 911.720546
v -2.466150 2085.094137 911.720546
v -2.466150 2093.080687 911.720546
v 2.336533 2086.056943 933.202243
v 2.336533 2078.070393 933.202243
v -2.466150 2078.070393 933.202243
v -2.466150 2086.056943 933.202243
v 2.336533 2075.424471 954.683940
v 2.336533 2067.437966 954.683940
v -2.466150 2067.437966 954.683940
v -2.466150 2075.424471 954.683940
v 2.336533 2071.141025 976.165637
v 2.336533 2063.154520 976.165637
v -2.466150 2063.154520 976.165637
v -2.466150 2071.141025 976.165637
v 2.336533 2065.672659 997.647423
v 2.336533 2057.686198 997.647423
v -2.466150 2057.686198 997.647423
v -2.466150 2065.672659 997.647423
v 2.336533 2065.672659 1019.129031
v 2.336533 2057.686198 1019.129031
v -2.466150 2057.686198 1019.129031
v -2.466150 2065.672659 1019.129031
v 2.336533 2065.672659 1040.610640
v 2.336533 2057.686198 1040.610640
v -2.466150 2057.686198 1040.610640
v -2.466150 2065.672659 1040.610640
v 2.336533 2071.140981 1062.092337
v 2.336533 2063.154520 1062.092337
v -2.466150 2063.154520 1062.092337
v -2.466150 2071.140981 1062.092337
v 2.336533 2075.424471 1083.574034
v 2.336533 2067.438010 1083.574034
v -2.466150 2067.438010 1083.574034
v -2.466150 2075.424471 1083.574034
v 2.336533 2086.056943 1105.055687
v 2.336533 2078.070438 1105.055687
v -2.466150 2078.070482 1105.055687
v -2.466150 2086.056943 1105.055687
v 2.336533 2093.080687 1126.537384
v 2.336533 2085.094181 1126.537384
v -2.466150 2085.094226 1126.537384
v -2.466150 2093.080687 1126.537384
vt 0.449620 0.057025
vt 0.449620 0.057025
vt 0.046700 0.057025
vt 0.180622 0.456791
vt 0.180622 0.441385
vt 0.196988 0.441385
vt 0.196988 0.456791
vt 0.180622 0.965200
vt 0.180622 0.949794
vt 0.196988 0.949794
vt 0.196988 0.965200
vt 0.180622 0.456791
vt 0.152899 0.441385
vt 0.152899 0.456791
vt 0.180622 0.949794
vt 0.152899 0.949794
vt 0.152899 0.965200
vt 0.180622 0.456791
vt 0.180622 0.949794
vt 0.170482 0.965200
vt 0.170482 0.949794
vt 0.170482 0.949794
vt 0.170482 0.949794
vt 0.170482 0.456791
vt 0.170482 0.456791
vt 0.170482 0.456791
vt 0.170482 0.441385
vt 0.170482 0.904602
vt 0.180622 0.904602
vt 0.170482 0.904602
vt 0.180622 0.904602
vt 0.180622 0.864340
vt 0.180622 0.864340
vt 0.170482 0.864340
vt 0.170482 0.864340
vt 0.180622 0.824078
vt 0.180622 0.824078
vt 0.170482 0.824078
vt 0.170482 0.824078
vt 0.180622 0.783816
vt 0.180622 0.783816
vt 0.170482 0.783816
vt 0.170482 0.783816
vt 0.180622 0.743554
vt 0.180622 0.743554
vt 0.170482 0.743554
vt 0.170482 0.743554
vt 0.180622 0.703292
vt 0.180622 0.703292
vt 0.170482 0.703292
vt 0.170482 0.703292
vt 0.180622 0.663031
vt 0.180622 0.663031
vt 0.170482 0.663031
vt 0.170482 0.663031
vt 0.180622 0.622769
vt 0.180622 0.622769
vt 0.170482 0.622769
vt 0.170482 0.622769
vt 0.180622 0.582507
vt 0.180622 0.582507
vt 0.170482 0.582507
vt 0.170482 0.582507
vt 0.180622 0.542245
vt 0.180622 0.542245
vt 0.170482 0.542245
vt 0.170482 0.542245
vt 0.180622 0.501983
vt 0.180622 0.501983
vt 0.170482 0.501983
vt 0.170482 0.501983
vt 0.046700 0.057025
vt 0.034109 0.057025
vt 0.034109 0.057025
vt 0.462211 0.057025
vt 0.462211 0.057025
vt 0.034109 0.437029
vt 0.046700 0.437029
vt 0.046700 0.462665
vt 0.034109 0.462665
vt 0.046700 0.437029
vt 0.034109 0.437029
vt 0.449620 0.437029
vt 0.462211 0.437029
vt 0.462211 0.462665
vt 0.449620 0.462665
vt 0.462211 0.437029
vt 0.449620 0.437029
vt 0.449620 0.462665
vt 0.462211 0.462665
vt 0.046700 0.412690
vt 0.034109 0.412690
vt 0.034109 0.412690
vt 0.046700 0.412690
vt 0.462211 0.412690
vt 0.449620 0.412690
vt 0.449620 0.412690
vt 0.462211 0.412690
vt 0.449620 0.437029
vt 0.449620 0.412690
vt 0.412685 0.399786
vt 0.412685 0.424125
vt 0.449620 0.412690
vt 0.449620 0.437029
vt 0.412685 0.424125
vt 0.412685 0.399786
vt 0.379780 0.402720
vt 0.379780 0.378382
vt 0.379780 0.378382
vt 0.379780 0.402720
vt 0.346875 0.370319
vt 0.346875 0.345980
vt 0.346875 0.345980
vt 0.346875 0.370319
vt 0.313970 0.357265
vt 0.313970 0.332927
vt 0.313970 0.332927
vt 0.313970 0.357265
vt 0.281065 0.340601
vt 0.281065 0.316262
vt 0.281065 0.316262
vt 0.281065 0.340601
vt 0.248160 0.340601
vt 0.248160 0.316262
vt 0.248160 0.316262
vt 0.248160 0.340601
vt 0.215255 0.340601
vt 0.215255 0.316262
vt 0.215255 0.316262
vt 0.215255 0.340601
vt 0.182350 0.357265
vt 0.182350 0.332927
vt 0.182350 0.332927
vt 0.182350 0.357265
vt 0.149445 0.370319
vt 0.149445 0.345980
vt 0.149445 0.345980
vt 0.149445 0.370319
vt 0.116540 0.402720
vt 0.116540 0.378382
vt 0.116540 0.378382
vt 0.116540 0.402720
vt 0.083635 0.424125
vt 0.083635 0.399786
vt 0.083635 0.399787
vt 0.083635 0.424125
vt 0.046700 0.437029
vt 0.046700 0.412690
vt 0.046700 0.412690
vt 0.046700 0.437029
vt 0.511734 0.401998
vt 0.511734 0.379448
vt 0.523498 0.379448
vt 0.523498 0.401998
vt 0.523498 0.379448
vt 0.511734 0.379448
vt 0.511734 0.401998
vt 0.523498 0.401998
vt 0.491804 0.379448
vt 0.491804 0.379448
vt 0.491804 0.401998
vt 0.491804 0.401998
vt 0.511734 0.401998
vt 0.511734 0.379448
vt 0.523498 0.379448
vt 0.523498 0.401998
vt 0.523498 0.379448
vt 0.511734 0.379448
vt 0.511734 0.401998
vt 0.523498 0.401998
vt 0.511734 0.358041
vt 0.511734 0.045202
vt 0.523498 0.045202
vt 0.523498 0.358041
vt 0.523498 0.045202
vt 0.511734 0.045202
vt 0.511734 0.358041
vt 0.523498 0.358041
vt 0.523498 0.045202
vt 0.511734 0.045202
vt 0.511734 0.358041
vt 0.523498 0.358041
vt 0.511734 0.358041
vt 0.511734 0.045202
vt 0.523498 0.045202
vt 0.523498 0.358041
vt 0.504444 0.358041
vt 0.504444 0.045202
vt 0.491804 0.045202
vt 0.491804 0.358041
vt 0.504444 0.379448
vt 0.491804 0.379448
vt 0.504444 0.401998
vt 0.491804 0.401998
vt 0.491804 0.379448
vt 0.504444 0.379448
vt 0.504444 0.401998
vt 0.491804 0.401998
vt 0.491804 0.358041
vt 0.504444 0.358041
vt 0.491804 0.045202
vt 0.504444 0.045202
vt 0.504444 0.358041
vt 0.504444 0.045202
vt 0.491804 0.045202
vt 0.491804 0.358041
vt 0.504444 0.379448
vt 0.504444 0.401998
vt 0.504444 0.379448
vt 0.504444 0.401998
vt 0.491804 0.358041
vt 0.504444 0.358041
vt 0.491804 0.045202
vt 0.504444 0.045202
vt 0.237093 0.508714
vt 0.278673 0.508714
vt 0.302653 0.508714
vt 0.341356 0.508714
vt 0.341356 0.477115
vt 0.302653 0.477115
vt 0.278673 0.477115
vt 0.237093 0.477115
vt 0.302653 0.508714
vt 0.341356 0.508714
vt 0.341356 0.477115
vt 0.302653 0.477115
vt 0.278673 0.477115
vt 0.237093 0.477115
vt 0.237093 0.508714
vt 0.278673 0.508714
vn -0.000002 0.698879 -0.715240
vn -0.000002 0.698879 0.715240
vn 0.604329 0.556824 0.569854
vn 0.604329 0.556824 -0.569854
vn 0.000000 0.698879 -0.715240
vn 0.000000 0.698879 0.715240
vn 0.604329 0.556821 0.569857
vn 0.604329 0.556821 -0.569857
vn 0.000000 0.000000 1.000000
vn 0.727553 0.000000 0.686051
vn 0.727553 0.000000 -0.686051
vn 0.613101 0.414567 -0.672489
vn -0.702503 0.000000 -0.711681
vn -0.702502 0.000000 0.711682
vn -0.576755 0.570930 0.584288
vn -0.576755 0.570930 -0.584289
vn 0.613102 0.414566 0.672488
vn 0.727552 0.000000 0.686052
vn 0.727552 0.000000 -0.686052
vn 0.000000 0.000000 -1.000000
vn -0.702502 0.000000 -0.711682
vn -0.702501 0.000000 0.711682
vn -0.576755 0.570927 0.584291
vn -0.576755 0.570927 -0.584291
vn 0.000000 0.000000 1.000000
vn 0.000000 0.000000 1.000000
vn 0.727552 0.000000 0.686053
vn 0.727555 0.000000 0.686050
vn 0.727552 0.000000 -0.686053
vn 0.727555 0.000000 -0.686050
vn -0.000000 0.000000 -1.000000
vn 0.140137 -0.075875 -0.987221
vn -0.702500 0.000000 -0.711683
vn -0.702501 0.000000 0.711683
vn -0.702503 0.000000 0.711680
vn -0.702502 0.000000 -0.711682
vn 0.727554 0.000000 0.686051
vn 0.727554 0.000000 -0.686051
vn 0.727555 0.000000 -0.686049
vn 0.727555 0.000000 0.686049
vn -0.000000 0.000000 -1.000000
vn -0.000000 0.000000 -1.000000
vn -0.702502 0.000000 -0.711682
vn -0.702502 0.000000 0.711681
vn -0.702504 0.000000 0.711680
vn -0.702502 0.000000 -0.711682
vn 0.140139 -0.075875 0.987220
vn 0.000000 0.000000 1.000000
vn -0.000000 0.000000 -1.000000
vn -0.000000 0.000000 -1.000000
vn 0.000000 0.000000 -1.000000
vn 0.000000 0.698880 -0.715239
vn 0.000000 0.698880 0.715239
vn -0.599283 0.405222 0.690402
vn -0.133911 -0.072503 0.988338
vn 0.000000 0.000000 1.000000
vn -0.133911 -0.072503 -0.988338
vn -0.000000 0.000000 -1.000000
vn -0.599280 0.405224 -0.690403
vn 0.000003 0.698880 -0.715239
vn 0.000002 0.698880 0.715239
vn 0.000000 0.000000 1.000000
vn 0.000000 0.000000 1.000000
vn 0.000000 0.000000 1.000000
vn -0.841234 0.524905 0.129610
vn 0.841235 0.524905 0.129610
vn -0.858350 -0.498105 -0.122993
vn 0.858350 -0.498105 -0.122993
vn 0.826432 0.520775 0.214017
vn 0.849245 -0.488368 -0.200699
vn -0.849245 -0.488368 -0.200699
vn -0.826432 0.520775 0.214017
vn 0.862241 0.478483 0.166119
vn 0.821285 -0.538961 -0.187114
vn -0.821285 -0.538961 -0.187114
vn -0.862241 0.478483 0.166119
vn 0.847192 0.518108 0.117600
vn 0.855023 -0.505726 -0.114789
vn -0.855023 -0.505726 -0.114789
vn -0.847192 0.518108 0.117600
vn 0.871895 0.485773 0.061830
vn 0.835205 -0.545537 -0.069435
vn -0.835205 -0.545537 -0.069435
vn -0.871895 0.485773 0.061830
vn 0.856981 0.515349 0.000000
vn 0.856981 -0.515349 0.000000
vn -0.856981 -0.515349 0.000000
vn -0.856981 0.515349 0.000000
vn 0.871895 0.485774 -0.061829
vn 0.835205 -0.545538 0.069435
vn -0.835205 -0.545538 0.069435
vn -0.871895 0.485774 -0.061829
vn 0.847191 0.518109 -0.117601
vn 0.855022 -0.505727 0.114790
vn -0.855022 -0.505727 0.114790
vn -0.847191 0.518109 -0.117601
vn 0.862239 0.478485 -0.166120
vn 0.821283 -0.538963 0.187116
vn -0.821283 -0.538963 0.187116
vn -0.862238 0.478486 -0.166121
vn 0.826430 0.520778 -0.214018
vn 0.849242 -0.488372 0.200701
vn -0.849243 -0.488370 0.200700
vn -0.826429 0.520779 -0.214019
vn 0.841234 0.524907 -0.129610
vn 0.858348 -0.498108 0.122993
vn -0.858349 -0.498106 0.122993
vn -0.841232 0.524909 -0.129611
vn 0.000000 -1.000000 0.000002
vn 0.000000 -1.000000 0.000002
vn 0.000000 -1.000000 0.000002
vn 0.000000 -1.000000 0.000002
vn 0.000000 -1.000000 0.000002
vn 0.000000 -1.000000 0.000002
vn 0.000000 -1.000000 0.000002
vn 0.000000 -1.000000 0.000002
vn 0.000000 -1.000000 0.000000
vn 0.000000 -1.000000 0.000000
vn 0.000000 -1.000000 0.000000
vn 0.000000 -1.000000 0.000000
vn 0.000000 -1.000000 0.000000
vn 0.000000 -1.000000 0.000000
vn 0.000000 -1.000000 0.000000
vn 0.000000 -1.000000 0.000000
s 1
g rope_VariantOne
usemtl StingrayPBS42SG
f 60/4/1 61/5/2 10/6/3 11/7/4
f 52/8/5 53/9/6 13/10/7 15/11/8
f 61/151/2 62/152/9 22/153/10 10/154/3
f 22/77/10 23/78/11 11/79/4 10/80/3
f 23/155/11 59/156/12 60/157/1 11/158/4
f 24/159/13 21/160/14 9/161/15 12/162/16
f 53/163/6 54/164/17 29/165/18 13/166/7
f 29/83/18 30/84/19 15/85/8 13/86/7
f 30/167/19 51/168/20 52/169/5 15/170/8
f 31/87/21 32/88/22 14/89/23 16/90/24
f 63/171/25 64/172/26 2/173/27 18/174/28
f 2/73/27 4/3/29 19/91/30 18/92/28
f 4/175/29 57/176/31 58/177/32 19/178/30
f 3/72/33 1/74/34 17/93/35 20/94/36
f 62/152/9 63/171/25 18/174/28 22/153/10
f 18/92/28 19/91/30 23/78/11 22/77/10
f 19/178/30 58/177/32 59/156/12 23/155/11
f 20/94/36 17/93/35 21/82/14 24/81/13
f 7/1/37 5/75/38 26/95/39 25/96/40
f 5/179/38 49/180/41 50/181/42 26/182/39
f 6/76/43 8/2/44 28/97/45 27/98/46
f 55/183/47 56/184/48 7/185/37 25/186/40
f 25/96/40 26/95/39 30/84/19 29/83/18
f 26/182/39 50/181/42 51/168/20 30/167/19
f 27/98/46 28/97/45 32/88/22 31/87/21
f 54/164/17 55/183/47 25/186/40 29/165/18
f 34/187/49 33/188/50 6/189/43 27/190/46
f 35/191/51 34/187/49 27/190/46 31/192/21
f 36/193/52 35/191/51 31/192/21 16/194/24
f 14/16/23 37/21/53 36/20/52 16/17/24
f 32/195/22 38/196/54 37/197/53 14/198/23
f 28/199/45 39/200/55 38/196/54 32/195/22
f 8/201/44 40/202/56 39/200/55 28/199/45
f 42/203/57 41/204/58 3/205/33 20/206/36
f 43/207/59 42/203/57 20/206/36 24/159/13
f 44/208/60 43/207/59 24/159/13 12/162/16
f 9/13/15 45/27/61 44/26/60 12/14/16
f 21/160/14 46/209/62 45/210/61 9/161/15
f 17/211/35 47/212/63 46/209/62 21/160/14
f 1/213/34 48/214/64 47/212/63 17/211/35
f 50/181/42 49/180/41 33/188/50 34/187/49
f 51/168/20 50/181/42 34/187/49 35/191/51
f 52/169/5 51/168/20 35/191/51 36/193/52
f 36/20/52 37/21/53 53/9/6 52/8/5
f 37/197/53 38/196/54 54/164/17 53/163/6
f 39/200/55 40/202/56 56/184/48 55/183/47
f 58/177/32 57/176/31 41/204/58 42/203/57
f 60/157/1 59/156/12 43/207/59 44/208/60
f 44/26/60 45/27/61 61/5/2 60/4/1
f 45/210/61 46/209/62 62/152/9 61/151/2
f 46/209/62 47/212/63 63/171/25 62/152/9
f 47/212/63 48/214/64 64/172/26 63/171/25
f 54/15/17 38/22/54 68/28/65 65/29/66
f 38/99/54 39/100/55 67/101/67 68/102/65
f 39/23/55 55/19/47 66/31/68 67/30/67
f 55/103/47 54/104/17 65/105/66 66/106/68
f 66/106/68 65/105/66 69/107/69 70/108/70
f 67/30/67 66/31/68 70/33/70 71/34/71
f 68/102/65 67/101/67 71/109/71 72/110/72
f 65/29/66 68/28/65 72/35/72 69/32/69
f 70/108/70 69/107/69 73/111/73 74/112/74
f 71/34/71 70/33/70 74/37/74 75/38/75
f 72/110/72 71/109/71 75/113/75 76/114/76
f 69/32/69 72/35/72 76/39/76 73/36/73
f 74/112/74 73/111/73 77/115/77 78/116/78
f 75/38/75 74/37/74 78/41/78 79/42/79
f 76/114/76 75/113/75 79/117/79 80/118/80
f 73/36/73 76/39/76 80/43/80 77/40/77
f 78/116/78 77/115/77 81/119/81 82/120/82
f 79/42/79 78/41/78 82/45/82 83/46/83
f 80/118/80 79/117/79 83/121/83 84/122/84
f 77/40/77 80/43/80 84/47/84 81/44/81
f 82/120/82 81/119/81 85/123/85 86/124/86
f 83/46/83 82/45/82 86/49/86 87/50/87
f 84/122/84 83/121/83 87/125/87 88/126/88
f 81/44/81 84/47/84 88/51/88 85/48/85
f 86/124/86 85/123/85 89/127/89 90/128/90
f 87/50/87 86/49/86 90/53/90 91/54/91
f 88/126/88 87/125/87 91/129/91 92/130/92
f 85/48/85 88/51/88 92/55/92 89/52/89
f 90/128/90 89/127/89 93/131/93 94/132/94
f 91/54/91 90/53/90 94/57/94 95/58/95
f 92/130/92 91/129/91 95/133/95 96/134/96
f 89/52/89 92/55/92 96/59/96 93/56/93
f 94/132/94 93/131/93 97/135/97 98/136/98
f 95/58/95 94/57/94 98/61/98 99/62/99
f 96/134/96 95/133/95 99/137/99 100/138/100
f 93/56/93 96/59/96 100/63/100 97/60/97
f 98/136/98 97/135/97 101/139/101 102/140/102
f 99/62/99 98/61/98 102/65/102 103/66/103
f 100/138/100 99/137/99 103/141/103 104/142/104
f 97/60/97 100/63/100 104/67/104 101/64/101
f 102/140/102 101/139/101 105/143/105 106/144/106
f 103/66/103 102/65/102 106/69/106 107/70/107
f 104/142/104 103/141/103 107/145/107 108/146/108
f 101/64/101 104/67/104 108/71/108 105/68/105
f 106/144/106 105/143/105 59/147/12 58/148/32
f 107/70/107 106/69/106 58/18/32 42/24/57
f 108/146/108 107/145/107 42/149/57 43/150/59
f 105/68/105 108/71/108 43/25/59 59/12/12
s off
f 3/215/109 41/216/110 57/217/111 4/218/112 2/219/113 64/220/114 48/221/115 1/222/116
f 49/223/117 5/224/118 7/225/119 56/226/120 40/227/121 8/228/122 6/229/123 33/230/124
