# This file uses meters as units for non-parametric coordinates.

mtllib supportBeam.mtl
g default
v 79.697819 1221.337340 -1844.920409
v 57.119743 1221.337340 -1844.920409
v 79.697819 1238.015947 -1861.598539
v 57.119743 1238.015947 -1861.598539
v 79.697819 1656.096447 -1443.518156
v 57.119743 1656.096447 -1443.518156
v 79.697819 1639.418068 -1426.840210
v 57.119743 1639.418068 -1426.840210
vt 0.902598 0.000000
vt 0.056655 0.000000
vt 0.902598 0.250000
vt 0.056655 0.250000
vt 0.973562 0.000000
vt 0.996957 0.000000
vt 0.996957 1.000000
vt 0.973562 1.000000
vt 0.973562 1.000000
vt 0.996957 1.000000
vt 0.902341 0.000000
vt 0.902341 0.250000
vt 0.056913 0.000000
vt 0.056913 0.250000
vt 0.941265 -0.000000
vt 0.962577 -0.000000
vt 0.962577 1.000000
vt 0.941265 1.000000
vt 0.941265 1.000000
vt 0.962577 1.000000
vt 0.962577 -0.000000
vt 0.941265 -0.000000
vt 0.996957 0.000000
vt 0.973562 0.000000
vn -0.000000 -0.707097 -0.707117
vn -0.000000 -0.707097 -0.707117
vn -0.000000 -0.707097 -0.707117
vn -0.000000 -0.707097 -0.707117
vn -0.000000 0.707107 -0.707107
vn -0.000000 0.707107 -0.707107
vn -0.000000 0.707107 -0.707107
vn -0.000000 0.707107 -0.707107
vn 0.000000 0.707097 0.707116
vn 0.000000 0.707097 0.707116
vn 0.000000 0.707097 0.707116
vn 0.000000 0.707097 0.707116
vn 0.000000 -0.707106 0.707107
vn 0.000000 -0.707106 0.707107
vn 0.000000 -0.707106 0.707107
vn 0.000000 -0.707106 0.707107
vn -1.000000 0.000000 0.000000
vn -1.000000 0.000000 0.000000
vn -1.000000 0.000000 0.000000
vn -1.000000 0.000000 0.000000
vn 1.000000 -0.000000 -0.000000
vn 1.000000 -0.000000 -0.000000
vn 1.000000 -0.000000 -0.000000
vn 1.000000 -0.000000 -0.000000
s off
g supportBeam_VWoodLeft
usemtl StingrayPBS59SG
f 1/15/1 2/16/2 4/17/3 3/18/4
f 3/5/5 4/6/6 6/7/7 5/8/8
f 5/19/9 6/20/10 8/21/11 7/22/12
f 7/9/13 8/10/14 2/23/15 1/24/16
f 2/2/17 8/11/18 6/12/19 4/4/20
f 7/13/21 1/1/22 3/3/23 5/14/24
