# This file uses meters as units for non-parametric coordinates.

mtllib supportBeam_Square.mtl
g default
v -257.787437 638.652580 -820.655819
v -211.217654 638.652580 -820.655819
v -257.787437 659.209475 -820.655819
v -211.217654 659.209475 -820.655819
v -257.787437 659.209475 -1270.454568
v -211.217654 659.209475 -1270.454568
v -257.787437 638.652580 -1270.454568
v -211.217654 638.652580 -1270.454568
v -257.787437 659.209475 -1247.694610
v -211.217654 659.209475 -1247.694610
v -211.217654 638.652580 -1247.694610
v -257.787437 638.652580 -1247.694610
v -257.787437 659.209475 -845.850993
v -211.217654 659.209475 -845.850993
v -211.217654 638.652580 -845.850993
v -257.787437 638.652580 -845.850993
v -257.787437 226.201643 -1270.454568
v -211.217654 226.201643 -1270.454568
v -211.217654 226.201643 -1247.694610
v -257.787437 226.201643 -1247.694610
v -211.217654 226.201643 -845.850993
v -257.787437 226.201643 -845.850993
v -211.217654 226.201643 -820.655819
v -257.787437 226.201643 -820.655819
vt 0.130250 0.527074
vt 0.130250 0.527074
vt 0.130250 0.552652
vt 0.130250 0.552652
vt 0.641745 0.552652
vt 0.641745 0.552652
vt 0.669006 0.552652
vt 0.669006 0.552652
vt 0.669006 0.527074
vt 0.669006 0.527074
vt 0.669006 0.013896
vt 0.669006 0.013896
vt 0.641745 0.013896
vt 0.641745 0.013896
vt 0.641745 0.527074
vt 0.641745 0.527074
vt 0.160428 0.552652
vt 0.160428 0.552652
vt 0.160428 0.527074
vt 0.160428 0.527074
vt 0.160428 0.013896
vt 0.160428 0.013896
vt 0.130250 0.013896
vt 0.130250 0.013896
vt 0.035500 0.934388
vt 0.070969 0.934388
vt 0.070969 0.983298
vt 0.035500 0.983298
vt 0.035500 0.983298
vt 0.070969 0.983298
vt 0.070969 0.934388
vt 0.035500 0.934388
vt 0.035500 0.070844
vt 0.070969 0.070844
vt 0.035500 0.934388
vt 0.070969 0.934388
vt 0.070969 0.070844
vt 0.035500 0.070844
vt 0.035500 0.016701
vt 0.070969 0.016701
vt 0.035500 0.070844
vt 0.070969 0.070844
vt 0.070969 0.016701
vt 0.035500 0.016701
vt 0.088273 0.937410
vt 0.119937 0.937410
vt 0.119937 0.983298
vt 0.088273 0.983298
vt 0.088273 0.983298
vt 0.119937 0.983298
vt 0.119937 0.937410
vt 0.088273 0.937410
vt 0.119937 0.016701
vt 0.088273 0.016701
vt 0.119937 0.937410
vt 0.088273 0.937410
vt 0.088273 0.016701
vt 0.119937 0.016701
vt 0.088273 0.937410
vt 0.119937 0.937410
vt 0.119937 0.016701
vt 0.088273 0.016701
vt 0.088273 0.016701
vt 0.119937 0.016701
vn 0.000000 0.000000 1.000000
vn 0.000000 0.000000 1.000000
vn 0.000000 0.000000 1.000000
vn 0.000000 0.000000 1.000000
vn 0.000000 1.000000 0.000000
vn 0.000000 1.000000 0.000000
vn 0.000000 1.000000 0.000000
vn 0.000000 1.000000 0.000000
vn 0.000000 0.000000 -1.000000
vn 0.000000 0.000000 -1.000000
vn 0.000000 0.000000 -1.000000
vn 0.000000 0.000000 -1.000000
vn 0.000000 -1.000000 0.000000
vn 0.000000 -1.000000 0.000000
vn 0.000000 -1.000000 0.000000
vn 0.000000 -1.000000 0.000000
vn 1.000000 0.000000 0.000000
vn 1.000000 0.000000 0.000000
vn 1.000000 0.000000 0.000000
vn 1.000000 0.000000 0.000000
vn -1.000000 0.000000 0.000000
vn -1.000000 0.000000 0.000000
vn -1.000000 0.000000 0.000000
vn -1.000000 0.000000 0.000000
vn 0.000000 1.000000 0.000000
vn 0.000000 1.000000 0.000000
vn 1.000000 0.000000 0.000000
vn 1.000000 0.000000 0.000000
vn 0.000000 -1.000000 0.000000
vn 0.000000 -1.000000 0.000000
vn 0.000000 -1.000000 0.000000
vn 0.000000 -1.000000 0.000000
vn -1.000000 0.000000 0.000000
vn -1.000000 0.000000 0.000000
vn 0.000000 1.000000 0.000000
vn 0.000000 1.000000 0.000000
vn 1.000000 0.000000 0.000000
vn 1.000000 0.000000 0.000000
vn 0.000000 -1.000000 0.000000
vn 0.000000 -1.000000 0.000000
vn 0.000000 -1.000000 0.000000
vn 0.000000 -1.000000 0.000000
vn -1.000000 0.000000 0.000000
vn -1.000000 0.000000 0.000000
vn 0.000000 0.000000 -1.000000
vn 0.000000 0.000000 -1.000000
vn 1.000000 0.000000 0.000000
vn 1.000000 0.000000 0.000000
vn 0.000000 0.000000 1.000000
vn 0.000000 0.000000 1.000000
vn 0.000000 0.000000 1.000000
vn 0.000000 0.000000 1.000000
vn -1.000000 0.000000 0.000000
vn -1.000000 0.000000 0.000000
vn 0.000000 0.000000 -1.000000
vn 0.000000 0.000000 -1.000000
vn 0.000000 0.000000 -1.000000
vn 0.000000 0.000000 -1.000000
vn 1.000000 0.000000 0.000000
vn 1.000000 0.000000 0.000000
vn 0.000000 0.000000 1.000000
vn 0.000000 0.000000 1.000000
vn -1.000000 0.000000 0.000000
vn -1.000000 0.000000 0.000000
s 1
g supportBeam_One2
usemtl StingrayPBS30SG
f 1/45/1 2/46/2 4/47/3 3/48/4
s 2
f 9/25/5 10/26/6 6/27/7 5/28/8
s 3
f 5/49/9 6/50/10 8/51/11 7/52/12
s off
f 17/29/13 18/30/14 19/31/15 20/32/16
s 4
f 10/6/17 11/15/18 8/9/19 6/7/20
s 5
f 7/10/21 12/16/22 9/5/23 5/8/24
s 2
f 13/33/25 14/34/26 10/26/6 9/25/5
s 4
f 14/18/27 15/19/28 11/15/18 10/6/17
s off
f 12/35/29 11/36/30 15/37/31 16/38/32
s 5
f 9/5/23 12/16/22 16/20/33 13/17/34
s 2
f 3/39/35 4/40/36 14/34/26 13/33/25
s 4
f 2/2/37 15/19/28 14/18/27 4/3/38
s off
f 22/41/39 21/42/40 23/43/41 24/44/42
s 5
f 13/17/34 16/20/33 1/1/43 3/4/44
s 3
f 7/52/12 8/51/11 18/53/45 17/54/46
s 4
f 8/9/19 11/15/18 19/13/47 18/12/48
s off
f 11/55/49 12/56/50 20/57/51 19/58/52
s 5
f 12/16/22 7/10/21 17/11/53 20/14/54
s off
f 16/59/55 15/60/56 21/61/57 22/62/58
s 4
f 15/19/28 2/2/37 23/23/59 21/22/60
s 1
f 2/46/2 1/45/1 24/63/61 23/64/62
s 5
f 1/1/43 16/20/33 22/21/63 24/24/64
