# This file uses meters as units for non-parametric coordinates.

mtllib plank_Two.mtl
g default
v -23.733562 1697.439661 940.854353
v 23.812969 1697.439661 990.601682
v -23.733562 1703.708375 940.854353
v 23.812969 1703.708375 990.601682
v -23.733562 1703.708375 525.986286
v 23.812969 1703.708375 525.986286
v -23.733562 1697.439661 525.986286
v 23.812969 1697.439661 525.986286
v 0.039703 1700.573923 919.828606
v 0.039703 1697.439661 919.828551
v 23.812969 1700.573923 990.601738
v 0.039703 1703.708375 919.828551
v -23.733562 1700.573923 940.854408
v 0.039703 1703.708375 758.293762
v 23.812969 1703.708375 758.293762
v 0.039703 1703.708375 525.986286
v -6.437765 1703.708375 758.293762
v 0.039703 1700.573923 525.986341
v 23.812969 1700.573923 525.986341
v 0.039703 1697.439661 525.986286
v -23.733562 1700.573923 525.986341
v 0.039703 1697.439661 758.293762
v 23.812969 1697.439661 758.293762
v -6.437765 1697.439661 758.293762
v 23.812969 1700.573923 758.293818
v -6.437765 1700.573923 758.293818
vt 0.106167 0.056591
vt 0.042016 0.500000
vt 0.010297 0.133543
vt 0.106167 0.034613
vt 0.053895 0.175748
vt 0.053895 0.500000
vt 0.042016 0.500000
vt 0.010297 0.966316
vt 0.227654 0.034613
vt 0.053895 0.966316
vt 0.053895 0.500000
vt 0.227654 0.056591
vt 0.097492 0.033684
vt 0.106167 0.056591
vt 0.097492 0.500000
vt 0.097492 0.966316
vt 0.106167 0.078568
vt 0.053895 0.966316
vt 0.010297 0.966316
vt 0.227654 0.078568
vt 0.227654 0.056591
vt 0.097492 0.966316
vt 0.097492 0.500000
vt 0.097492 0.033684
vt 0.053895 0.175748
vt 0.010297 0.133543
vt 0.106167 0.034613
vt 0.227654 0.034613
vt 0.422737 0.026129
vt 0.349141 0.056591
vt 0.349141 0.034613
vt 0.401743 0.952338
vt 0.380749 0.952339
vt 0.380748 0.489234
vt 0.349141 0.078568
vt 0.227654 0.078568
vt 0.106167 0.078568
vt 0.349141 0.078568
vt 0.349141 0.056591
vt 0.349141 0.034613
vt 0.401743 0.489234
vt 0.401743 0.026129
vt 0.380748 0.026129
vt 0.380748 0.489234
vt 0.401743 0.489234
vt 0.380748 0.026129
vt 0.401743 0.026129
vt 0.422737 0.026129
vt 0.422737 0.489234
vt 0.422737 0.952338
vt 0.380749 0.853168
vt 0.401743 0.853168
vt 0.422737 0.853168
vt 0.422737 0.489234
vn 0.662496 -0.000013 0.749065
vn 0.662496 -0.000013 0.749065
vn 0.662496 -0.000013 0.749065
vn 0.662496 -0.000013 0.749065
vn 0.000000 1.000000 -0.000000
vn 0.000000 1.000000 -0.000000
vn 0.000000 1.000000 -0.000000
vn 0.000000 1.000000 -0.000000
vn 0.000000 -0.000018 -1.000000
vn 0.000000 -0.000018 -1.000000
vn 0.000000 -0.000018 -1.000000
vn 0.000000 -0.000018 -1.000000
vn 0.000000 -1.000000 0.000000
vn 0.000000 -1.000000 0.000000
vn 0.000000 -1.000000 0.000000
vn 0.000000 -1.000000 0.000000
vn 1.000000 0.000000 0.000000
vn 1.000000 0.000000 0.000000
vn 1.000000 0.000000 0.000000
vn 1.000000 0.000000 0.000000
vn -0.997240 -0.000001 0.074247
vn -0.997240 -0.000001 0.074247
vn -0.997240 -0.000001 0.074247
vn -0.997240 -0.000001 0.074247
vn -0.947948 -0.000006 0.318424
vn -0.947949 -0.000006 0.318424
vn -0.947948 -0.000006 0.318424
vn -0.947949 -0.000006 0.318424
vn -0.947948 0.000006 0.318424
vn -0.947948 0.000006 0.318424
vn -0.947948 0.000006 0.318424
vn -0.947948 0.000006 0.318424
vn 0.662496 0.000013 0.749065
vn 0.662496 0.000013 0.749065
vn 0.662496 0.000013 0.749065
vn 0.662496 0.000013 0.749065
vn 0.000000 1.000000 0.000000
vn 0.000000 1.000000 0.000000
vn 0.000000 1.000000 0.000000
vn 0.000000 1.000000 0.000000
vn 0.000000 1.000000 0.000000
vn 0.000000 1.000000 0.000000
vn 0.000000 1.000000 0.000000
vn 0.000000 1.000000 0.000000
vn 0.000000 1.000000 0.000000
vn 0.000000 1.000000 0.000000
vn 0.000000 1.000000 0.000000
vn 0.000000 1.000000 0.000000
vn 0.000000 -0.000018 -1.000000
vn 0.000000 -0.000018 -1.000000
vn 0.000000 -0.000018 -1.000000
vn 0.000000 -0.000018 -1.000000
vn 0.000000 0.000018 -1.000000
vn 0.000000 0.000018 -1.000000
vn 0.000000 0.000018 -1.000000
vn 0.000000 0.000018 -1.000000
vn 0.000000 0.000018 -1.000000
vn 0.000000 0.000018 -1.000000
vn 0.000000 0.000018 -1.000000
vn 0.000000 0.000018 -1.000000
vn 0.000000 -1.000000 0.000000
vn 0.000000 -1.000000 0.000000
vn 0.000000 -1.000000 0.000000
vn 0.000000 -1.000000 0.000000
vn 0.000000 -1.000000 0.000000
vn 0.000000 -1.000000 0.000000
vn 0.000000 -1.000000 0.000000
vn 0.000000 -1.000000 0.000000
vn 0.000000 -1.000000 -0.000000
vn 0.000000 -1.000000 -0.000000
vn 0.000000 -1.000000 -0.000000
vn 0.000000 -1.000000 -0.000000
vn 1.000000 -0.000000 0.000000
vn 1.000000 -0.000000 0.000000
vn 1.000000 -0.000000 0.000000
vn 1.000000 -0.000000 0.000000
vn 1.000000 0.000000 0.000000
vn 1.000000 0.000000 0.000000
vn 1.000000 0.000000 0.000000
vn 1.000000 0.000000 0.000000
vn 1.000000 -0.000000 0.000000
vn 1.000000 -0.000000 0.000000
vn 1.000000 -0.000000 0.000000
vn 1.000000 -0.000000 0.000000
vn -0.995542 0.000002 -0.094318
vn -0.995542 0.000002 -0.094318
vn -0.995542 0.000002 -0.094318
vn -0.995542 0.000002 -0.094318
vn -0.995542 -0.000002 -0.094318
vn -0.995542 -0.000002 -0.094318
vn -0.995542 -0.000002 -0.094318
vn -0.995542 -0.000002 -0.094318
vn -0.997240 0.000001 0.074247
vn -0.997240 0.000001 0.074247
vn -0.997240 0.000001 0.074247
vn -0.997240 0.000001 0.074247
s off
g plank_Two
usemtl StingrayPBS43SG
f 13/1/1 1/4/2 10/9/3 9/12/4
f 17/2/5 3/3/6 12/5/7 14/6/8
f 21/14/9 5/17/10 16/20/11 18/21/12
f 24/7/13 7/8/14 20/10/15 22/11/16
f 11/32/17 2/33/18 23/34/19 25/41/20
f 21/42/21 7/43/22 24/44/23 26/45/24
f 10/9/25 2/31/26 11/30/27 9/12/28
f 11/30/29 4/35/30 12/36/31 9/12/32
f 12/36/33 3/37/34 13/1/35 9/12/36
f 12/5/37 4/13/38 15/15/39 14/6/40
f 15/15/41 6/16/42 16/18/43 14/6/44
f 16/18/45 5/19/46 17/2/47 14/6/48
f 16/20/49 6/38/50 19/39/51 18/21/52
f 19/39/53 8/40/54 20/28/55 18/21/56
f 20/28/57 7/27/58 21/14/59 18/21/60
f 20/10/61 8/22/62 23/23/63 22/11/64
f 23/23/65 2/24/66 10/25/67 22/11/68
f 10/25/69 1/26/70 24/7/71 22/11/72
f 23/34/73 8/46/74 19/47/75 25/41/76
f 19/47/77 6/48/78 15/49/79 25/41/80
f 15/49/81 4/50/82 11/32/83 25/41/84
f 24/44/85 1/51/86 13/52/87 26/45/88
f 13/52/89 3/53/90 17/54/91 26/45/92
f 17/54/93 5/29/94 21/42/95 26/45/96
